<svg xmlns="http://www.w3.org/2000/svg" width="100" height="100" viewBox="0 0 100 100"><path fill="#4681A0" d="M50 0c27.614 0 50 22.386 50 50s-22.386 50-50 50S0 77.614 0 50 22.386 0 50 0z"/><path fill="#3F7490" d="M95.827 70H4.172C11.89 87.656 29.5 100 50 100s38.11-12.344 45.827-30z"/><path fill="#EDEDED" d="M76 77H24a4 4 0 0 1-4-4V49c0-16.568 13.432-30 30-30s30 13.432 30 30v24a4 4 0 0 1-4 4z"/><path fill="#fff" d="M80 55H46a5 5 0 0 1-5-5c0-1.633.795-3.07 2.006-3.982L43 46l22.617-22.617c-.294-.18-.595-.35-.896-.52l-22.427 22.43-.06.06A5.942 5.942 0 0 0 40 50c0 3.31 2.69 6 6 6h34v-1z"/><path fill="#93D3E8" d="M80 49c0-10.847-5.758-20.348-14.383-25.617L43 46l.006.018C41.796 46.93 41 48.368 41 50a5 5 0 0 0 5 5h34v-6z"/><path fill="#fff" d="M46 47a3 3 0 1 1 0 6 3 3 0 0 1 0-6z"/><path fill="#A9DCED" d="M80 55v-6c0-10.847-5.758-20.348-14.383-25.617L62 27c7.286 5.473 12 14.186 12 24v4h6z"/><path fill="#EFC75E" d="M20 70v3a4 4 0 0 0 4 4h52a4 4 0 0 0 4-4v-8H20v5z"/><path fill="#D5D5D5" d="M30 73V49c0-14.864 10.813-27.196 25-29.577A30.077 30.077 0 0 0 50 19c-16.568 0-30 13.432-30 30v24a4 4 0 0 0 4 4h10a4 4 0 0 1-4-4z"/><path fill="#D7B354" d="M30 73v-8H20v8a4 4 0 0 0 4 4h10a4 4 0 0 1-4-4zm46 1H24a4 4 0 0 1-4-4v3a4 4 0 0 0 4 4h52a4 4 0 0 0 4-4v-3a4 4 0 0 1-4 4z"/><path fill="#C1A14B" d="M30.142 74H24a4 4 0 0 1-4-4v3a4 4 0 0 0 4 4h10a3.99 3.99 0 0 1-3.858-3z"/><path fill="#E2574C" d="M29.5 48a4.5 4.5 0 1 1 0 9 4.5 4.5 0 0 1 0-9z"/><path fill="#CB4E44" d="M31.5 56a4.5 4.5 0 0 1-4.5-4.5c0-1.37.626-2.583 1.592-3.408A4.5 4.5 0 0 0 29.5 57c1.115 0 2.122-.42 2.908-1.092A4.46 4.46 0 0 1 31.5 56z"/></svg>