<svg xmlns="http://www.w3.org/2000/svg" width="100" height="100" viewBox="0 0 100 100"><path fill="#4681A0" d="M50 0a50 50 0 1 1 0 100A50 50 0 0 1 50 0z"/><path fill="#3F7490" d="M95.83 70H4.17a50 50 0 0 0 91.66 0z"/><path fill="#EDEDED" d="M76 77H24a4 4 0 0 1-4-4V49a30 30 0 0 1 60 0v24a4 4 0 0 1-4 4z"/><path fill="#fff" d="M80 55H46a5 5 0 0 1-3-8.98V46l22.62-22.62-.9-.52L42.3 45.3l-.06.06A6 6 0 0 0 46 56h34v-1z"/><path fill="#93D3E8" d="M80 49a29.98 29.98 0 0 0-14.38-25.62L43 46v.02A4.98 4.98 0 0 0 46 55h34v-6z"/><path fill="#fff" d="M46 47a3 3 0 1 1 0 6 3 3 0 0 1 0-6z"/><path fill="#A9DCED" d="M80 55v-6a29.98 29.98 0 0 0-14.38-25.62L62 27a29.95 29.95 0 0 1 12 24v4h6z"/><path fill="#EFC75E" d="M20 70v3a4 4 0 0 0 4 4h52a4 4 0 0 0 4-4v-8H20v5z"/><path fill="#D4D4D4" d="M30 73V49a30 30 0 0 1 25-29.58A30 30 0 0 0 20 49v24a4 4 0 0 0 4 4h10a4 4 0 0 1-4-4z"/><path fill="#D7B354" d="M30 73v-8H20v8a4 4 0 0 0 4 4h10a4 4 0 0 1-4-4zm46 1H24a4 4 0 0 1-4-4v3a4 4 0 0 0 4 4h52a4 4 0 0 0 4-4v-3a4 4 0 0 1-4 4z"/><path fill="#C1A14B" d="M30.14 74H24a4 4 0 0 1-4-4v3a4 4 0 0 0 4 4h10a4 4 0 0 1-3.86-3z"/><path fill="#E2574C" d="M29.5 48a4.5 4.5 0 1 1 0 9 4.5 4.5 0 0 1 0-9z"/><path fill="#CB4E44" d="M31.5 56a4.5 4.5 0 0 1-2.9-7.9 4.5 4.5 0 1 0 3.8 7.8c-.29.07-.59.1-.9.1z"/></svg>