<svg xmlns="http://www.w3.org/2000/svg" width="100" height="100" viewBox="0 0 100 100"><path class="background" fill="#EFC75E" d="M50 0a50 50 0 1 1 0 100A50 50 0 0 1 50 0z"/><path fill="#E2574C" d="M72 40H28a10 10 0 0 0-10 10v38.41C26.67 95.65 37.83 100 50 100s23.33-4.36 32-11.59V50a10 10 0 0 0-10-10z"/><path fill="#CB4E44" d="M25 51v42.3c.98.56 1.98 1.1 3 1.6V51a4 4 0 0 1 4-4h-3a4 4 0 0 0-4 4z"/><path fill="#F19088" d="M71 46H29a5 5 0 0 0-5 5v41.72c.66.4 1.32.78 2 1.15V51a3 3 0 0 1 3-3h42a3 3 0 0 1 3 3v42.87a49.4 49.4 0 0 0 2-1.16V51a5 5 0 0 0-5-5z"/><path fill="#CB4E44" d="M18 50v38.41c.97.81 1.97 1.57 3 2.3V50a10 10 0 0 1 10-10h-3a10 10 0 0 0-10 10z"/><path fill="#F1ABA6" d="M34.5 55h31a1.5 1.5 0 0 1 0 3h-31a1.5 1.5 0 0 1 0-3z"/><path class="handle" fill="#324D5B" d="M68.5 28H63v12h-3V28H40v12h-3V28h-5.5a2.5 2.5 0 1 1 0-5h37a2.5 2.5 0 1 1 0 5z"/><path class="plane" fill="#F2F1EF" d="M58.66 69.33c-.77-.77-2.7-.08-3.62.84l-3.52 3.52c-.34-.32-8.88-3.36-9.19-3.06l-1.1 1.11a.77.77 0 0 0 0 1.12l6.23 4.9L45 80.2a7.4 7.4 0 0 0-.67.82l-.1-.1c-.15-.15-2.4-.44-2.55-.28l-.57.57a.4.4 0 0 0 0 .56l.28.28 1.5 1.5c-.3.74-.4 1.39-.12 1.67.29.3.94.18 1.68-.12l1.48 1.48.3.3a.4.4 0 0 0 .56 0l.57-.57c.15-.16-.13-2.4-.29-2.55l-.1-.1c.35-.25.63-.48.82-.67l2.46-2.46 4.9 6.22c.3.31.8.31 1.11 0l1.12-1.1c.3-.32-2.75-8.86-3.07-9.19l3.52-3.51c.92-.92 1.6-2.86.83-3.63z"/><path d="M37 28h3v3h-3zm23 0h3v3h-3z" fill="#233640"/><path fill="#2D4552" d="M70.95 26h-41.9a2.5 2.5 0 0 0 2.45 2h37a2.5 2.5 0 0 0 2.45-2z"/></svg>