<svg xmlns="http://www.w3.org/2000/svg" width="100" height="100" viewBox="0 0 100 100"><path class="background" fill="#EFC75E" d="M50 0a50 50 0 1 1 0 100A50 50 0 0 1 50 0z"/><path fill="#E2574C" d="M72 40H28a10 10 0 0 0-10 10v38.4c8.67 7.24 19.83 11.6 32 11.6s23.33-4.36 32-11.6V50a10 10 0 0 0-10-10z"/><path fill="#CB4E44" d="M25 51v42.3c.98.56 1.98 1.1 3 1.6V51a4 4 0 0 1 4-4h-3a4 4 0 0 0-4 4z"/><path fill="#F19088" d="M71 46H29a5 5 0 0 0-5 5v41.72c.66.4 1.32.78 2 1.15V51a3 3 0 0 1 3-3h42a3 3 0 0 1 3 3v42.87a49.4 49.4 0 0 0 2-1.16V51a5 5 0 0 0-5-5z"/><path fill="#CB4E44" d="M18 50v38.4c.97.82 1.97 1.58 3 2.32V50a10 10 0 0 1 10-10h-3a10 10 0 0 0-10 10z"/><path fill="#F1ABA6" d="M34.5 55h31a1.5 1.5 0 0 1 0 3h-31a1.5 1.5 0 0 1 0-3z"/><path class="handle" fill="#324D5B" d="M68.5 28H63v12h-3V28H40v12h-3V28h-5.5a2.5 2.5 0 0 1 0-5h37a2.5 2.5 0 0 1 0 5z"/><path class="plane" fill="#F2F1EF" d="M58.66 69.33c-.77-.77-2.7-.08-3.62.84l-3.52 3.52c-.34-.4-8.88-3.4-9.2-3.1l-1.1 1.1c-.3.3-.3.8 0 1.1l6.24 4.9L45 80.2c-.18.2-.42.5-.67.83l-.1-.1c-.15-.15-2.4-.44-2.55-.28l-.57.57a.4.4 0 0 0 0 .56l.3.28 1.5 1.5c-.3.74-.4 1.4-.1 1.67.3.3.98.18 1.7-.12l1.5 1.5.3.3c.16.2.4.2.57 0l.57-.52a7.4 7.4 0 0 0-.3-2.55l-.1-.1c.35-.25.6-.5.8-.67l2.48-2.45 4.9 6.23c.3.3.8.3 1.1 0l1.14-1.1c.3-.34-2.75-8.88-3.07-9.2l3.53-3.5c.93-.94 1.6-2.88.84-3.65z"/><path d="M37 28h3v3h-3zm23 0h3v3h-3z" fill="#233640"/><path fill="#2D4552" d="M70.95 26h-41.9a2.5 2.5 0 0 0 2.45 2h37a2.5 2.5 0 0 0 2.45-2z"/></svg>