<svg xmlns="http://www.w3.org/2000/svg" width="100" height="100" viewBox="0 0 100 100"><path fill="#EDEDED" d="M50 0a50 50 0 1 0 0 100A50 50 0 0 0 50 0z"/><path fill="#D5D5D5" d="M44.9 3H55l10 70-15.02 13L35 73l9.9-70z"/><path fill="#DAD8D8" d="M50 0c6.17 0 12.97 1.46 18.42 3.5L50 18 31.64 3.49A54.78 54.78 0 0 1 50 0z"/><path fill="#E2574C" d="M44.9 1H55l10 70-15.02 13L35 71l9.9-70z"/><path fill="#CB4E44" d="M49.98 84l.02-.02V1h-5.1L35 71zM44.5 59h11a1.5 1.5 0 0 1 0 3h-11a1.5 1.5 0 0 1 0-3z"/><path fill="#B6463D" d="M50 59h-5.5a1.5 1.5 0 0 0 0 3H50v-3z"/><path fill="#D15248" d="M43.25 12.67L50 18l6.69-5.27L55.02 1H44.9z"/><path fill="#BE4B41" d="M44.9 1l-1.65 11.67L50 18V1z"/><path fill="#EC655B" d="M50 0c6.17 0 12.07 1.12 17.53 3.17L50 17 32.47 3.17A49.87 49.87 0 0 1 50 0z"/><path fill="#EFC75E" d="M44.5 58h11a1.5 1.5 0 0 1 0 3h-11a1.5 1.5 0 0 1 0-3z"/><path fill="#D5D5D5" d="M99.18 41H84v5h15.83c-.14-1.7-.36-3.36-.65-5z"/><path fill="#fff" d="M97.72 35.04l-9.8 1.4A4.57 4.57 0 0 0 84 40.96V41h15.18a49.73 49.73 0 0 0-1.46-5.96z"/></svg>