<svg width="157" height="37" viewBox="0 0 157 37" xmlns="http://www.w3.org/2000/svg"><title>logo</title><g fill="none" fill-rule="evenodd"><path d="M119.33 14.87s3.2-1.6 2.97 1.16c0 0 1.49-3.2 4.47-1.83 1.21.55 2.06 1.95 2.46 4.3.7 4.09 2.47 4.39 3.43 2.73 0 0-2.04-1.3-1.7-3.96.65-4.94 7.55-3.94 8.86-.6 0 0-2.38-5.89.51-10.93 0 0 2.4-1.72 3.02-.11-.82 2.85-1.12 11.76-1.12 11.76s.38 3.44 1.7 3.14c2.46-.57 2.96-6.46 2.23-8.47-.33-.8 3.3-1.99 6.04 2.83 4.8 8.44-1.15 11.99-4.7 10.3-2.95-1.42-.83-6.6 4.56-5.45l.06.71c-1.54-.73-4.77-.25-4.83 2.36-.04 1.93 3.38 2.2 3.88-1.6.45-3.36-2.57-6.8-2.87-6.65-.31.14-1.3 6.72-4.57 6.8-1.58.03-2.53-1.71-2.53-1.71-.17.9-2.65 3.88-7.47 2.06-1.31 1.23-3.09 1.46-5.18.49-2.08-.97-2.41-3.26-2.78-4.9-.36-1.56-2.35-1.5-2.95-.63-.46.67-.23 4.77-.4 4.8 0 0-2.15.5-2.76-.16-.54-.6-.31-4.88-.33-6.44zm19.91 3.28c-1.34-2.98-4.88-2.84-5.25-.54-.37 2.3 2 4.14 4.14 2.85 1.39-.83 1.11-2.31 1.11-2.31zM47 5.62c-1.75 1.13-1.83-1.1-10.83-1.55-3.2-.16-6.6.16-10.1.67-.21 3.03-1.55 20.24-3.04 20.99-1.58.79-3.87-.85-3.87-.85s.97-7.04 3.23-19.56C17.21 6.2 11.9 7.26 6.77 7.61-3.1 8.27.1.6 3.15 1.5c3.06.9.1 3.1 3.48 3.77 3.4.67 13.61-1.94 25.67-3.37C45.58.34 49.19 4.2 47 5.61" fill="#333C46"/><path d="M85.67 11.36c-2.06.27-1.98 9.17-5.94 9.68-2.9.37-1.5-5.3-1.5-5.3s-.7-1.57-2.75-1.31c-2.3.3-.7 6.13-3.34 6.31-.7-.29-1-7.87 1.16-15.11 0 0-1.48-2.5-3.4-.73-2.37 2.2-.6 10.94-.6 10.94-4.96-5.72-10.84.95-7.97 4.75.54.71.74.88.74.88-.96 1.62-3.1 1.04-3.29-2.76-.11-2.38-.78-4.28-1.91-4.98-2.8-1.72-5.35 2.5-5.35 2.5.24-2.75-2.75-1.15-2.75-1.15s-1.48 5.89-4.55 6.56c-2.63.58-3.04-1.35-3.04-1.35s3.47-1.17 4.54-3.48c1.73-3.72-3.46-5.83-5.96-3.12-1.96 2.12-2.26 5-1.83 6.4 0 0-.32 1.46-1.5 1.66-1.18.2-2.68-.94-.45-6.13 2.24-5.18-1.95-4.28-3.6-2.75-1.65 1.53-2-1.77-3.7-.28-1.46 1.29-.06 4.7-1.02 8.02 0 0 .96 1.41 1.76.06.64-1.07.62-6.15.62-6.15.94.7 3.34-.15 3.42-.18-1.65 3.56-2.13 8.7 1.82 8.39 2.57-.2 3.03-1.48 3.03-1.48s1.4 1.94 4.5 1.78a6.88 6.88 0 0 0 5.95-4.27c.03.94.13 2.53.33 2.75.61.66 2.56.17 2.56.17.16-.03 0-4.1.4-4.8.89-1.61 3.28-1.79 3.44-.2.17 1.67.2 4.75 2.3 5.72 2.03.96 3.98.76 5.28-.4.5.18 1.15.34 1.98.36 3.57.12 4.55-2.12 4.55-2.12s.67 1.89 2.12 1.82c2.22-.11 2.92-3.15 2.92-3.15 0 1.88 1.41 3.57 4.86 3.46 2.34-.07 3.85-2.98 3.85-2.98-.58 2.47-1.54 15.75-.69 16.55.85.8 2.4.7 2.82-.15 0 0 .08-9.04.75-15.35.67-6.31 1.94-7.76 1.94-7.76s-.43-1.58-2.5-1.32zm-41.9 2.71c1.7.33.55 4.38-2.8 5.01-1.08-1.76 1.18-5.31 2.8-5zm20.1 5.2c-1.27-2.46 2.7-5.64 5.26-1.94l.02 1.29c-.42 1.89-4.01 3.09-5.28.65zm27.58-9.45c-.1 6.38-1.85 12.05-1.21 13.11.25.43 3.41.3 3.4-.12-.03-1.33.17-4.2.75-9.02 1.13.4 1.9 8.02 4.86 7.96 2.96-.06 6.38-7.79 7.28-9.93.9-.01-1.19 8.12 2.16 14.49 3.35 6.37 10.1 6.07 10.33 5.05.21-1.02-6.77.49-8.26-10.24-1.37-9.87 2.26-19.3 2.26-19.3s-2.9-1.56-4.62-.5c-1.72 1.05-3.26 12.96-8.48 18-.48.14-2.95-5.14-3.3-9.69-.14-1.8-5.17.19-5.17.19" fill="#333C46"/><path d="M114.2 14.55s2.66-.85 2.78 1.47c.07 1.33.06 4.85-.3 5.36-.26.37-2.01.36-2.37.22-.55-.21-.25-4.97-.11-7.05" fill="#333C46"/><path d="M115.89 2.32c.09-.05.1-.02.44-.02h3.97c.13 0 .2-.01.26.04.06.06.04.15.03.18a509 509 0 0 0-2.08 5c-.02.08.02.2.14.2h.9c.06 0 .22.07.11.25-.1.18-3.5 4.43-3.58 4.52-.07.1-.27.1-.27-.1 0-.19.3-4.42.3-4.51 0-.1-.06-.15-.17-.15h-1.45c-.08 0-.2-.03-.18-.18.02-.13 1.26-4.4 1.5-5.14a.15.15 0 0 1 .08-.1" fill="#D18316"/><path d="M155.18 9.5a1.47 1.47 0 1 1-.02 2.94c-.82 0-1.49-.64-1.49-1.47 0-.81.67-1.46 1.5-1.46zm-.02.3c-.64 0-1.12.53-1.12 1.17 0 .65.48 1.17 1.14 1.17.64 0 1.1-.52 1.1-1.17 0-.64-.46-1.17-1.11-1.17zm-.22 1.93h-.34v-1.46c.14-.02.32-.05.56-.05.27 0 .4.04.5.12a.4.4 0 0 1 .15.3c0 .18-.13.3-.3.36.14.05.22.16.26.36.05.22.07.31.1.36h-.36a1.3 1.3 0 0 1-.11-.35c-.03-.16-.12-.23-.3-.23h-.16v.58zm0-.82h.17c.18 0 .33-.07.33-.22 0-.13-.1-.22-.3-.22a.8.8 0 0 0-.2.02v.42z" fill="#333C46"/></g></svg>