<svg width="157" height="37" viewBox="0 0 157 37" xmlns="http://www.w3.org/2000/svg"><title>logo</title><g fill="none" fill-rule="evenodd"><path d="M119.332 14.875s3.202-1.596 2.963 1.15c0 0 1.495-3.187 4.47-1.828 1.217.557 2.065 1.956 2.465 4.3.697 4.09 2.474 4.392 3.427 2.736 0 0-2.04-1.302-1.692-3.962.645-4.937 7.544-3.938 8.855-.606 0 0-2.377-5.883.513-10.928 0 0 2.4-1.715 3.015-.106-.82 2.846-1.116 11.76-1.116 11.76s.38 3.44 1.706 3.136c2.45-.56 2.95-6.455 2.224-8.463-.33-.794 3.3-1.992 6.04 2.83 4.797 8.437-1.15 11.982-4.697 10.29-2.96-1.41-.84-6.593 4.552-5.44l.066.708c-1.546-.732-4.775-.25-4.832 2.358-.04 1.93 3.375 2.197 3.88-1.59.447-3.367-2.568-6.8-2.874-6.662-.306.14-1.3 6.726-4.57 6.8-1.575.035-2.53-1.71-2.53-1.71-.162.898-2.647 3.887-7.465 2.066-1.312 1.226-3.09 1.46-5.175.486-2.085-.973-2.416-3.258-2.787-4.892-.354-1.564-2.352-1.507-2.953-.63-.458.666-.23 4.763-.393 4.795 0 0-2.15.498-2.76-.163-.54-.59-.315-4.878-.33-6.432zm19.91 3.274c-1.346-2.977-4.883-2.836-5.25-.535-.367 2.3 2 4.133 4.136 2.85 1.39-.834 1.114-2.316 1.114-2.316zM46.994 5.618c-1.74 1.128-1.828-1.106-10.822-1.548-3.21-.156-6.61.164-10.11.67-.202 3.035-1.538 20.24-3.034 20.99-1.582.79-3.867-.85-3.867-.85s.972-7.044 3.232-19.557C17.212 6.2 11.904 7.26 6.774 7.607-3.098 8.27.09.62 3.15 1.512c3.058.896.09 3.102 3.48 3.768 3.393.668 13.61-1.938 25.666-3.368C45.58.336 49.19 4.197 46.994 5.618" fill="#333C46"/><path d="M85.673 11.36c-2.064.267-1.986 9.175-5.94 9.68-2.904.37-1.505-5.293-1.505-5.293s-.694-1.58-2.745-1.318c-2.295.29-.698 6.127-3.34 6.315-.704-.29-1-7.878 1.153-15.12 0 0-1.474-2.488-3.39-.72-2.378 2.193-.605 10.933-.605 10.933-4.96-5.718-10.843.95-7.97 4.755.54.71.74.88.74.88-.96 1.62-3.098 1.033-3.286-2.762-.12-2.376-.78-4.28-1.92-4.984-2.787-1.72-5.34 2.507-5.34 2.507.238-2.748-2.758-1.152-2.758-1.152s-1.473 5.89-4.545 6.564c-2.635.578-3.037-1.352-3.037-1.352s3.472-1.174 4.54-3.48c1.723-3.724-3.466-5.836-5.963-3.125-1.96 2.127-2.258 5.012-1.835 6.402 0 0-.32 1.463-1.498 1.66-1.18.198-2.678-.942-.445-6.127 2.233-5.183-1.95-4.28-3.6-2.754-1.65 1.526-2.005-1.772-3.693-.285-1.466 1.292-.075 4.696-1.027 8.03 0 0 .953 1.41 1.76.052.632-1.068.62-6.147.62-6.147.934.697 3.336-.153 3.418-.18-1.65 3.56-2.13 8.695 1.816 8.39 2.572-.198 3.036-1.48 3.036-1.48s1.4 1.936 4.494 1.776c2.093-.108 4.712-1.338 5.95-4.265.038.945.132 2.53.34 2.754.606.66 2.554.164 2.554.164.163-.033 0-4.09.392-4.798.896-1.61 3.29-1.79 3.45-.194.17 1.667.207 4.745 2.29 5.717 2.04.952 3.986.753 5.29-.403.496.185 1.15.337 1.98.365 3.568.116 4.548-2.127 4.548-2.127s.667 1.89 2.115 1.82c2.23-.11 2.923-3.152 2.923-3.152 0 1.887 1.414 3.575 4.86 3.468 2.34-.07 3.85-2.983 3.85-2.983-.58 2.474-1.538 15.75-.688 16.546.853.796 2.4.703 2.82-.148 0 0 .08-9.042.748-15.35.67-6.31 1.947-7.757 1.947-7.757s-.438-1.583-2.502-1.32zm-41.9 2.714c1.7.322.552 4.374-2.795 5.008-1.088-1.765 1.172-5.315 2.794-5.008zm20.096 5.192c-1.273-2.46 2.703-5.64 5.262-1.934l.016 1.287c-.417 1.888-4.013 3.09-5.28.646zM91.452 9.816c-.11 6.382-1.85 12.054-1.216 13.118.254.43 3.417.295 3.407-.127-.035-1.33.17-4.205.75-9.012 1.124.39 1.895 8.01 4.856 7.95 2.96-.06 6.38-7.785 7.28-9.925.908-.015-1.187 8.122 2.16 14.49 3.348 6.37 10.108 6.069 10.325 5.05.217-1.023-6.763.49-8.253-10.238-1.37-9.868 2.26-19.294 2.26-19.294s-2.907-1.572-4.625-.516c-1.72 1.056-3.253 12.963-8.482 18.01-.48.14-2.95-5.138-3.296-9.692-.138-1.8-5.168.186-5.168.186" fill="#333C46"/><path d="M114.2 14.547s2.66-.845 2.778 1.474c.068 1.327.062 4.85-.303 5.363-.258.362-2.008.355-2.364.22-.553-.213-.25-4.97-.11-7.056" fill="#333C46"/><path d="M115.888 2.316c.088-.042.098-.017.44-.017h3.974c.13 0 .192-.012.256.044.063.056.04.15.028.172a714.86 714.86 0 0 0-2.074 5.01c-.023.08.018.195.142.196.126.002.828 0 .89 0 .064 0 .223.07.12.247-.104.176-3.51 4.43-3.583 4.52-.074.09-.27.094-.27-.098 0-.19.3-4.42.3-4.513 0-.093-.064-.15-.174-.15h-1.447c-.08 0-.192-.028-.177-.177.015-.136 1.257-4.402 1.502-5.143a.154.154 0 0 1 .073-.094" fill="#D18316"/><path d="M155.178 9.506c.833 0 1.48.652 1.48 1.463 0 .83-.647 1.472-1.49 1.472-.83 0-1.496-.643-1.496-1.473 0-.813.665-1.464 1.497-1.464h.008zm-.017.295c-.637 0-1.116.527-1.116 1.17 0 .65.48 1.168 1.134 1.168.638.01 1.107-.517 1.107-1.17 0-.64-.47-1.167-1.116-1.167h-.01zm-.22 1.928h-.338v-1.455c.133-.026.32-.053.56-.053.273 0 .397.044.503.116.08.062.142.178.142.312 0 .17-.124.295-.3.348v.018c.14.045.22.16.265.357.044.224.07.313.106.358h-.363c-.045-.054-.07-.18-.115-.348-.027-.16-.116-.232-.302-.232h-.16v.58zm.008-.82h.16c.185 0 .336-.064.336-.215 0-.134-.097-.223-.31-.223-.09 0-.15.01-.186.018v.42z" fill="#333C46"/></g></svg>