<svg width="157" height="37" viewBox="0 0 157 37" xmlns="http://www.w3.org/2000/svg"><title>logo</title><g fill="none" fill-rule="evenodd"><path d="M119.33 14.87s3.2-1.6 2.97 1.16c0 0 1.5-3.2 4.47-1.83 1.2.55 2.06 1.95 2.46 4.3.7 4.1 2.47 4.4 3.43 2.73 0 0-2.04-1.3-1.7-3.96.65-4.94 7.55-3.94 8.86-.6 0 0-2.38-5.9.5-10.93 0 0 2.4-1.72 3.03-.1-.82 2.84-1.12 11.75-1.12 11.75s.38 3.4 1.7 3.1c2.46-.6 2.96-6.5 2.23-8.5-.33-.8 3.3-2 6.04 2.8 4.8 8.43-1.15 12-4.7 10.3-2.95-1.4-.83-6.6 4.56-5.45l.06.7c-1.54-.7-4.77-.24-4.83 2.37-.1 1.93 3.3 2.2 3.8-1.6.43-3.36-2.6-6.8-2.9-6.65-.3.12-1.3 6.7-4.57 6.8-1.6 0-2.54-1.7-2.54-1.7-.18.86-2.66 3.85-7.48 2.03-1.3 1.25-3.1 1.48-5.2.5-2.07-.96-2.4-3.25-2.77-4.9-.36-1.55-2.35-1.5-2.95-.62-.43.68-.2 4.78-.4 4.8 0 0-2.12.5-2.73-.15-.53-.6-.3-4.88-.32-6.44zm19.9 3.28c-1.33-2.98-4.87-2.84-5.24-.54-.4 2.4 2 4.2 4.1 2.9 1.4-.8 1.1-2.3 1.1-2.3zM47 5.62c-1.75 1.13-1.83-1.1-10.83-1.55-3.2-.16-6.6.16-10.1.67-.2 3.03-1.55 20.24-3.04 21-1.58.78-3.87-.86-3.87-.86s.97-7.04 3.23-19.56c-5.2.88-10.5 1.94-15.7 2.3C-3.1 8.26.1.6 3.1 1.5c3.1.9.1 3.1 3.5 3.76 3.4.67 13.6-1.94 25.68-3.37C45.6.3 49.2 4.2 47 5.6" fill="#333C46"/><path d="M85.67 11.36c-2.06.27-1.98 9.17-5.94 9.68-2.9.37-1.5-5.3-1.5-5.3s-.7-1.57-2.75-1.3c-2.3.28-.7 6.12-3.34 6.3-.7-.3-1-7.87 1.16-15.1 0 0-1.48-2.5-3.4-.74-2.37 2.2-.6 10.94-.6 10.94-4.96-5.72-10.84.95-7.97 4.75.54.7.74.8.74.8-.96 1.6-3.1 1.02-3.3-2.78-.1-2.38-.77-4.28-1.9-4.98-2.8-1.73-5.35 2.5-5.35 2.5.24-2.76-2.75-1.16-2.75-1.16s-1.48 5.9-4.55 6.56c-2.63.6-3.04-1.34-3.04-1.34s3.47-1.2 4.54-3.5c1.73-3.7-3.46-5.83-5.96-3.1-1.96 2.1-2.26 5-1.83 6.4 0 0-.32 1.44-1.5 1.64-1.18.2-2.68-.94-.45-6.13 2.24-5.17-1.95-4.27-3.6-2.74-1.65 1.5-2-1.8-3.7-.3-1.46 1.3-.06 4.7-1.02 8 0 0 .96 1.42 1.76.07.64-1.06.62-6.14.62-6.14.94.7 3.34-.16 3.42-.2-1.65 3.57-2.13 8.7 1.82 8.4 2.57-.2 3.03-1.5 3.03-1.5s1.4 1.96 4.5 1.8a6.92 6.92 0 0 0 6-4.27c.08.92.18 2.5.38 2.73.6.65 2.56.16 2.56.16.16 0 0-4.1.4-4.8.9-1.6 3.28-1.8 3.44-.2.15 1.7.2 4.77 2.27 5.74 2.04.96 4 .76 5.3-.4.5.18 1.14.34 1.97.36 3.58.1 4.56-2.14 4.56-2.14s.68 1.9 2.1 1.8c2.25-.1 2.95-3.15 2.95-3.15 0 1.9 1.4 3.58 4.87 3.47 2.33-.07 3.84-2.98 3.84-2.98-.57 2.45-1.53 15.73-.7 16.53.87.8 2.4.7 2.84-.16 0 0 .08-9.07.75-15.38.7-6.3 1.95-7.76 1.95-7.76s-.42-1.58-2.5-1.32zm-41.9 2.7c1.7.34.55 4.4-2.8 5.02-1.08-1.76 1.18-5.3 2.8-5zm20.1 5.2c-1.27-2.45 2.7-5.63 5.26-1.93l.02 1.3c-.42 1.88-4 3.08-5.28.64zm27.58-9.44c-.1 6.38-1.85 12.05-1.2 13.1.24.44 3.4.3 3.4-.1-.04-1.34.16-4.22.74-9.03 1.1.3 1.9 8 4.8 7.9 2.92-.1 6.4-7.8 7.3-9.97.9 0-1.2 8.12 2.1 14.5 3.35 6.36 10.1 6.06 10.33 5.04.2-1-6.8.5-8.28-10.24-1.33-9.8 2.3-19.27 2.3-19.27s-2.9-1.56-4.62-.5c-1.72 1.05-3.26 12.96-8.48 18-.48.14-2.95-5.14-3.3-9.7-.14-1.8-5.17.2-5.17.2" fill="#333C46"/><path d="M114.2 14.55s2.66-.85 2.78 1.47c.07 1.33.06 4.85-.3 5.36-.26.37-2 .36-2.37.22-.5-.2-.2-4.97-.1-7.05" fill="#333C46"/><path d="M115.9 2.32c.08-.05.1-.02.43-.02h3.97c.13 0 .2 0 .26.04.06.06.04.15.03.18-.1.02-2.1 4.93-2.1 5 0 .08 0 .2.1.2h.9c.02 0 .2.07.1.25s-3.5 4.43-3.6 4.52c-.08 0-.28 0-.28-.1 0-.2.3-4.5.3-4.6 0-.1-.06-.16-.17-.16h-1.45c-.1 0-.2-.03-.2-.18.03-.14 1.27-4.4 1.5-5.15.04-.07.08-.1.1-.1" fill="#D18316"/><path d="M155.18 9.5a1.47 1.47 0 0 1-.02 2.94c-.82 0-1.5-.64-1.5-1.47 0-.8.68-1.46 1.5-1.46h.02zm-.02.3c-.64 0-1.12.53-1.12 1.17 0 .65.48 1.17 1.14 1.17.64 0 1.1-.52 1.1-1.17 0-.64-.46-1.17-1.1-1.17h-.02zm-.22 1.93h-.34v-1.46c.14-.02.32-.05.56-.05.27 0 .4.04.5.12a.4.4 0 0 1 .15.3c0 .18-.1.3-.3.36.2.06.3.17.3.37l.1.36h-.3a2.04 2.04 0 0 1-.1-.35c-.03-.16-.12-.23-.3-.23h-.2v.58zm0-.82h.17c.2 0 .4 0 .4-.2s-.1-.2-.3-.2a.8.8 0 0 0-.2 0v.4z" fill="#333C46"/></g></svg>