<?xml version="1.0" encoding="UTF-8" standalone="no"?>
<svg width="157px" height="37px" viewBox="0 0 157 37" version="1.1" xmlns="http://www.w3.org/2000/svg" xmlns:xlink="http://www.w3.org/1999/xlink" xmlns:sketch="http://www.bohemiancoding.com/sketch/ns">
    <title>logo</title>
    <description>Created with Sketch (http://www.bohemiancoding.com/sketch)</description>
    <defs></defs>
    <g id="Page-1" stroke="none" stroke-width="1" fill="none" fill-rule="evenodd" sketch:type="MSPage">
        <g id="Imported-Layers" sketch:type="MSLayerGroup" transform="translate(0.000000, 1.000000)">
            <path d="M119.33226,13.8748235 C119.33226,13.8748235 122.534336,12.2794412 122.295179,15.0262941 C122.295179,15.0262941 123.790304,11.8381765 126.765575,13.1974412 C127.982385,13.7541176 128.830473,15.1525588 129.229944,17.4970588 C129.926916,21.5870294 131.703511,21.8893235 132.657248,20.2325294 C132.657248,20.2325294 130.617843,18.9312353 130.965278,16.2714706 C131.610476,11.3331176 138.508711,12.3318529 139.820395,15.6639706 C139.820395,15.6639706 137.443279,9.78141176 140.333137,4.73558824 C140.333137,4.73558824 142.733643,3.02082353 143.347567,4.62970588 C142.528914,7.47582353 142.231676,16.3903235 142.231676,16.3903235 C142.231676,16.3903235 142.611699,19.8301765 143.937838,19.5262941 C146.388015,18.9648529 146.888405,13.0711765 146.161998,11.0625882 C145.830595,10.2687353 149.461577,9.07147059 152.202159,13.8917647 C156.998965,22.3297941 151.050788,25.875 147.504957,24.1843235 C144.545717,22.7739706 146.665542,17.5899706 152.056825,18.7425 L152.122527,19.4511176 C150.577468,18.7181471 147.348322,19.2009706 147.291293,21.8083235 C147.248717,23.7372353 150.665246,24.0045882 151.169316,20.2174412 C151.617407,16.8511765 148.602451,13.4171471 148.296015,13.5561176 C147.989841,13.6953529 146.997208,20.2815 143.725488,20.3553529 C142.150731,20.3910882 141.195942,18.6472059 141.195942,18.6472059 C141.033788,19.5437647 138.549446,22.5330882 133.731089,20.7116471 C132.417828,21.9380294 130.639919,22.1712353 128.554785,21.1981765 C126.47044,20.2251176 126.138774,17.9404412 125.768212,16.3056176 C125.413944,14.742 123.416063,14.7986471 122.815017,15.6745588 C122.356676,16.3421471 122.585058,20.4387353 122.422379,20.4712941 C122.422379,20.4712941 120.270754,20.9681471 119.662349,20.3069118 C119.12096,19.7174118 119.346714,15.4294412 119.33226,13.8748235 L119.33226,13.8748235 Z M139.242213,17.1489706 C137.895838,14.1726176 134.358679,14.3142353 133.991797,16.6145294 C133.624651,18.9150882 135.992043,20.7479118 138.128425,19.4646176 C139.518426,18.6307941 139.242213,17.1489706 139.242213,17.1489706 L139.242213,17.1489706 Z" id="Fill-1" fill="#333C46" sketch:type="MSShapeGroup"></path>
            <path d="M46.9940926,4.61832353 C45.2535025,5.74570588 45.165724,3.51211765 36.1715802,3.07005882 C32.9631967,2.91361765 29.5613851,3.23417647 26.0618083,3.73976471 C25.8604959,6.77461765 24.5235818,23.9807647 23.0281934,24.7288235 C21.4458149,25.5187059 19.1612083,23.8799118 19.1612083,23.8799118 C19.1612083,23.8799118 20.1320281,16.8360882 22.3916678,4.32291176 C17.2132612,5.20094118 11.904238,6.26108824 6.77366281,6.60652941 C-3.09826612,7.26855882 0.0914578512,-0.380911765 3.15030248,0.512205882 C6.20783306,1.40770588 3.24070909,3.61429412 6.63069421,4.28029412 C10.0230446,4.94841176 20.241357,2.34211765 32.2964479,0.911911765 C45.5793868,-0.663882353 49.1888182,3.19658824 46.9940926,4.61832353" id="Fill-2" fill="#333C46" sketch:type="MSShapeGroup"></path>
            <path d="M85.6731421,10.3608529 C83.6092959,10.6266176 83.6873504,19.5345 79.7333752,20.0395588 C76.8290628,20.4104118 78.2282628,14.7467647 78.2282628,14.7467647 C78.2282628,14.7467647 77.5344446,13.167 75.4829504,13.4285294 C73.1875686,13.7207647 74.7851901,19.5572647 72.144476,19.7449412 C71.4390942,19.4542941 71.1426446,11.8670294 73.2961091,4.62547059 C73.2961091,4.62547059 71.8217455,2.13670588 69.9069124,3.90414706 C67.5282198,6.09829412 69.3013983,14.8375588 69.3013983,14.8375588 C64.341124,9.12044118 58.4568099,15.7870588 61.3301107,19.593 C61.8686083,20.3032059 62.0688694,20.4744706 62.0688694,20.4744706 C61.1096132,22.0915588 58.9721802,21.5062941 58.7840083,17.7114706 C58.6652182,15.3338824 58.0047769,13.4285294 56.8652331,12.726 C54.0770826,11.0054118 51.5225702,15.2330294 51.5225702,15.2330294 C51.7619901,12.4848529 48.7656942,14.0812941 48.7656942,14.0812941 C48.7656942,14.0812941 47.2926446,19.9696765 44.2211851,20.6438824 C41.5854645,21.222 41.1831025,19.2920294 41.1831025,19.2920294 C41.1831025,19.2920294 44.6545587,18.1177941 45.7236694,15.8111471 C47.4463884,12.0883235 42.256681,9.9765 39.759724,12.6868235 C37.7994248,14.8137353 37.5024496,17.6990294 37.9250479,19.0887353 C37.9250479,19.0887353 37.6057339,20.5530882 36.4265058,20.7505588 C35.2472777,20.9475 33.7492612,19.8084706 35.982357,14.6228824 C38.2151901,9.44047059 34.0330959,10.3420588 32.3829124,11.8688824 C30.7329917,13.3957059 30.3766215,10.0982647 28.689119,11.5851176 C27.2239537,12.8771471 28.6152694,16.281 27.6628463,19.6141765 C27.6628463,19.6141765 28.615795,21.024 29.4218331,19.6668529 C30.0554678,18.5992941 30.0423273,13.5198529 30.0423273,13.5198529 C30.9771421,14.2173529 33.3794876,13.3671176 33.4609587,13.3403824 C31.811038,16.8985588 31.3293074,22.0351765 35.275924,21.7297059 C37.8477818,21.5322353 38.3121669,20.2489412 38.3121669,20.2489412 C38.3121669,20.2489412 39.7132066,22.1855294 42.8064793,22.0264412 C44.8989719,21.9179118 47.5176099,20.6878235 48.7551818,17.7612353 C48.7940777,18.7046471 48.8884264,20.2889118 49.0947322,20.5136471 C49.7023488,21.1748824 51.6495074,20.6780294 51.6495074,20.6780294 C51.813238,20.6454706 51.6495074,16.5885882 52.0418826,15.8799706 C52.9378017,14.2689706 55.333314,14.0895 55.4931025,15.6864706 C55.6626149,17.3533235 55.6994083,20.4310588 57.7834909,21.4033235 C59.8210562,22.3552059 61.7682149,22.1556176 63.0712264,20.9996471 C63.5682,21.1846765 64.2225967,21.3371471 65.0512364,21.3646765 C68.6204579,21.4814118 69.6002132,19.2377647 69.6002132,19.2377647 C69.6002132,19.2377647 70.2672248,21.1293529 71.7150446,21.0570882 C73.9444612,20.9485588 74.6380165,17.9055 74.6380165,17.9055 C74.6380165,19.7925882 76.0516711,21.4814118 79.4981603,21.3744706 C81.837957,21.3027353 83.3475372,18.3912353 83.3475372,18.3912353 C82.7669901,20.8635882 81.8095736,34.1393824 82.6600264,34.9364118 C83.5133702,35.7321176 85.0597438,35.6392059 85.4786628,34.7881765 C85.4786628,34.7881765 85.5588198,25.7463529 86.2276711,19.4384118 C86.8965223,13.1272941 88.1745669,11.6814706 88.1745669,11.6814706 C88.1745669,11.6814706 87.7372512,10.0972059 85.6731421,10.3608529 L85.6731421,10.3608529 Z M43.7723058,13.0743529 C45.4721603,13.3965 44.324995,17.4478235 40.9783736,18.0820588 C39.8900777,16.317 42.1497174,12.7670294 43.7723058,13.0743529 L43.7723058,13.0743529 Z M63.8685917,18.2657647 C62.5968545,15.8055882 66.5729058,12.627 69.1316231,16.3315588 L69.1481802,17.6188235 C68.730838,19.5080294 65.1350727,20.709 63.8685917,18.2657647 L63.8685917,18.2657647 Z" id="Fill-3" fill="#333C46" sketch:type="MSShapeGroup"></path>
            <path d="M91.4523322,8.81629412 C91.3411636,15.1980882 89.6018876,20.8699412 90.2355223,21.9337941 C90.4904479,22.3634118 93.6528397,22.2286765 93.6425901,21.8072647 C93.6084248,20.4755294 93.8131537,17.6018824 94.392124,12.7945588 C95.5172132,13.1844706 96.2882975,20.8058824 99.2488512,20.7457941 C102.210193,20.6862353 105.630927,12.96 106.528686,10.8201176 C107.437745,10.8052941 105.343413,18.9420882 108.691086,25.3103824 C112.038496,31.6794706 118.797967,31.3785 119.015048,30.3585882 C119.232392,29.3373529 112.251898,30.8485588 110.762291,20.1224118 C109.392263,10.2536471 113.022456,0.828 113.022456,0.828 C113.022456,0.828 110.11499,-0.744088235 108.397002,0.311823529 C106.678488,1.368 105.143678,13.2752647 99.9153372,18.3226765 C99.4357091,18.4611176 96.9658215,13.1844706 96.619438,8.63020588 C96.4822512,6.831 91.4523322,8.81629412 91.4523322,8.81629412" id="Fill-4" fill="#333C46" sketch:type="MSShapeGroup"></path>
            <path d="M114.199319,13.5465882 C114.199319,13.5465882 116.860269,12.7019118 116.978271,15.0212647 C117.04555,16.3474412 117.040031,19.8693529 116.674988,20.3828824 C116.417435,20.7452647 114.667383,20.7375882 114.31075,20.6015294 C113.75701,20.3900294 114.060818,15.6316765 114.199319,13.5465882" id="Fill-5" fill="#333C46" sketch:type="MSShapeGroup"></path>
            <path d="M115.888136,1.31585294 C115.97644,1.27429412 115.986164,1.29864706 116.328079,1.29864706 C116.669995,1.29864706 120.171674,1.29891176 120.301502,1.29891176 C120.431331,1.29891176 120.494405,1.28752941 120.557742,1.34391176 C120.621342,1.40002941 120.598215,1.49426471 120.586388,1.51570588 C120.574036,1.53661765 118.532792,6.44876471 118.511504,6.52711765 C118.489428,6.60494118 118.529638,6.72141176 118.65421,6.72247059 C118.77957,6.72379412 119.482324,6.72247059 119.545398,6.72247059 C119.608473,6.72247059 119.766684,6.79208824 119.6634,6.96891176 C119.560379,7.14573529 116.15515,11.4000882 116.080512,11.4906176 C116.006137,11.5811471 115.80903,11.5835294 115.80903,11.3924118 C115.80903,11.2012941 116.109421,6.97129412 116.109421,6.87944118 C116.109421,6.78705882 116.045821,6.73067647 115.936493,6.73067647 C115.826638,6.73067647 114.56883,6.72855882 114.488936,6.72855882 C114.408779,6.72855882 114.298398,6.70155882 114.313379,6.55305882 C114.328359,6.417 115.570398,2.151 115.815337,1.40982353 C115.836362,1.34391176 115.879463,1.32008824 115.888136,1.31585294" id="Fill-6" fill="#D18316" sketch:type="MSShapeGroup"></path>
            <path d="M155.178218,8.50605882 C156.0108,8.50605882 156.657575,9.1575 156.657575,9.96935294 C156.657575,10.7992059 156.0108,11.4416471 155.169283,11.4416471 C154.336701,11.4416471 153.672055,10.7992059 153.672055,9.96935294 C153.672055,9.1575 154.336701,8.50605882 155.169283,8.50605882 L155.178218,8.50605882 L155.178218,8.50605882 Z M155.16061,8.80067647 C154.52277,8.80067647 154.044456,9.32691176 154.044456,9.96935294 C154.044456,10.6207941 154.52277,11.1382941 155.178218,11.1382941 C155.816058,11.1470294 156.285436,10.6207941 156.285436,9.96935294 C156.285436,9.32691176 155.816058,8.80067647 155.169283,8.80067647 L155.16061,8.80067647 L155.16061,8.80067647 Z M154.939061,10.7277353 L154.602402,10.7277353 L154.602402,9.27344118 C154.735383,9.24670588 154.921453,9.21997059 155.16061,9.21997059 C155.434983,9.21997059 155.55903,9.26444118 155.665468,9.33591176 C155.745099,9.39838235 155.807122,9.51432353 155.807122,9.64826471 C155.807122,9.81767647 155.683076,9.94261765 155.505942,9.99608824 L155.505942,10.0140882 C155.647597,10.0585588 155.727491,10.1745 155.771643,10.3709118 C155.816058,10.5937941 155.842339,10.683 155.878081,10.7277353 L155.514615,10.7277353 C155.470463,10.6742647 155.443919,10.5493235 155.399767,10.3796471 C155.37296,10.2192353 155.284393,10.1477647 155.098324,10.1477647 L154.939061,10.1477647 L154.939061,10.7277353 L154.939061,10.7277353 Z M154.947734,9.90688235 L155.10726,9.90688235 C155.293329,9.90688235 155.443919,9.84441176 155.443919,9.69273529 C155.443919,9.55879412 155.346679,9.46958824 155.133803,9.46958824 C155.045236,9.46958824 154.983213,9.47858824 154.947734,9.48758824 L154.947734,9.90688235 L154.947734,9.90688235 Z" id="Fill-7" fill="#333C46" sketch:type="MSShapeGroup"></path>
        </g>
    </g>
</svg>