<svg xmlns="http://www.w3.org/2000/svg" width="100" height="100" viewBox="0 0 100 100"><path fill="#2EA9D3" d="M50 0c27.614 0 50 22.386 50 50s-22.386 50-50 50-50-22.386-50-50 22.386-50 50-50zM50 0c27.614 0 50 22.386 50 50s-22.386 50-50 50-50-22.386-50-50 22.386-50 50-50z"/><path fill="#2998BD" d="M50 2c-12.174 0-23.329 4.355-32 11.587v66.413l4-3 4 3 4-3 4 3 4-3 4 3 4-3 4 3 4-3 4 3 4-3 4 3 4-3 4 3 4-3 4 3v-66.413c-8.672-7.232-19.826-11.587-32-11.587z"/><path fill="#F2F1EF" d="M50 0c-12.174 0-23.329 4.355-32 11.587v66.413l4-3 4 3 4-3 4 3 4-3 4 3 4-3 4 3 4-3 4 3 4-3 4 3 4-3 4 3 4-3 4 3v-66.413c-8.672-7.232-19.826-11.587-32-11.587z"/><path fill="#E4665C" d="M53.192 61.422v-1.646c.531.062.861.334 1.273.334.484 0 .791-.434.791-.916 0-.892-1.356-1.188-2.064-1.214v-.383c0-.335 0-.582-.318-.582s-.318.247-.318.582v.383c-1.402.161-2.534 1.201-2.534 2.786 0 1.771 1.415 2.093 2.534 2.438v2.068c-.684-.075-1.273-.471-1.779-.471-.484 0-.791.396-.791.879 0 1.064 1.615 1.337 2.57 1.361v.384c0 .285 0 .582.318.582s.318-.297.318-.582v-.396c1.475-.124 2.678-1.188 2.678-2.836 0-1.99-1.533-2.423-2.678-2.771zm-.636-.223c-.377-.148-.624-.334-.624-.655 0-.396.271-.656.624-.755v1.41zm.636 4.024v-1.807c.449.161.768.396.768.805 0 .482-.272.879-.768 1.002zm8.694.062h-2.157c1.003-1.324 2.83-3.033 2.83-4.754 0-1.572-1.167-2.575-2.618-2.575-1.449 0-2.771 1.251-2.771 2.811 0 .482.295.903.86.903 1.133 0 .484-2.006 1.84-2.006.483 0 .85.446.85.954 0 .445-.201.829-.413 1.151-.896 1.361-1.958 2.476-2.937 3.701-.117.148-.271.372-.271.632 0 .569.4.816.919.816h3.938c.448 0 .849-.247.849-.816s-.4-.817-.919-.817zm6.666-3.169c.648-.434.967-1.114.967-1.895 0-.966-.813-2.266-2.512-2.266-1.309 0-2.57 1.04-2.57 2.006 0 .458.283.916.768.916.801 0 .648-1.214 1.768-1.214.531 0 .85.359.85.83 0 1.374-1.675.495-1.675 1.795 0 1.461 2.005.186 2.005 1.919 0 .656-.495 1.151-1.108 1.151-1.333 0-1.144-1.448-1.946-1.448-.424 0-.907.347-.907.829 0 .979 1.085 2.328 2.83 2.328 1.674 0 2.971-1.251 2.971-2.736-.003-.977-.592-1.807-1.441-2.215z"/><path fill="#D9D8D7" d="M28 48h44v2h-44v-2z"/><path fill="#868686" d="M28 22.974h36v-3.997h-36v3.997zm28 4.004h-28v3.997h28v-3.997zm-28 11.996h34v-3.996h-34v3.996zm40-19.993v4.02h4v-4.02h-4zm0 12.02h4v-4.02h-4v4.02zm0 8h4v-4.02h-4v4.02z"/><g fill="#E4665C"><path d="M37 1.717c-1.356.364-2.692.779-4 1.252v8.031h4v-9.283zM41 .824c-.671.122-1.338.256-2 .405v9.771h2v-10.176zM31 3.747c-1.017.418-2.018.867-3 1.349v5.904h3v-7.253zM46 .174c-1.008.08-2.009.186-3 .324v10.502h3v-10.826zM50 0c-.671 0-1.336.024-2 .051v10.949h2v-11zM68 3.353c-.66-.255-1.327-.494-2-.722v8.369h2v-7.647zM70 4.172v6.828h2v-5.904c-.658-.323-1.326-.629-2-.924zM56 .371c-1.318-.158-2.651-.268-4-.32v10.949h4v-10.629zM60.001 1.002c-.662-.134-1.33-.25-2.001-.357v10.355h2.001v-9.998zM64 2.001c-.661-.193-1.326-.376-1.999-.542v9.541h1.999v-8.999z"/></g></svg>