<?xml version="1.0" encoding="UTF-8" standalone="no"?>
<svg width="30px" height="22px" viewBox="0 0 30 22" version="1.1" xmlns="http://www.w3.org/2000/svg" xmlns:xlink="http://www.w3.org/1999/xlink" xmlns:sketch="http://www.bohemiancoding.com/sketch/ns">
    <title>cloud-add</title>
    <description>Created with Sketch (http://www.bohemiancoding.com/sketch)</description>
    <defs></defs>
    <g id="Page-1" stroke="none" stroke-width="1" fill="none" fill-rule="evenodd" sketch:type="MSPage">
        <g id="noun_31166_cc" sketch:type="MSLayerGroup" fill="#000000">
            <path d="M26.1511523,8.29657812 C26.1932227,7.97786458 26.25,7.66276042 26.25,7.33333333 C26.25,3.2835 22.8936914,0 18.75,0 C16.3000195,0 14.1448828,1.16554167 12.7770703,2.94335938 C12.2845313,2.827 11.7773438,2.75 11.25,2.75 C7.62451172,2.75 4.6875,5.62174479 4.6875,9.16666667 C4.6875,9.26692708 4.71316406,9.35647396 4.71679688,9.45673437 C1.99769531,10.2391094 0,12.6703958 0,15.5833333 C0,19.1282552 2.93701172,22 6.5625,22 L22.5,22 C26.6436914,22 30,18.718276 30,14.6666667 C30,11.920276 28.438125,9.55338542 26.1511523,8.29657812 L26.1511523,8.29657812 Z M20.625,14.6666667 L16.875,14.6666667 L16.875,18.3333333 L13.125,18.3333333 L13.125,14.6666667 L9.375,14.6666667 L9.375,11 L13.125,11 L13.125,7.33333333 L16.875,7.33333333 L16.875,11 L20.625,11 L20.625,14.6666667 L20.625,14.6666667 Z" id="Shape" sketch:type="MSShapeGroup"></path>
        </g>
    </g>
</svg>