<svg width="257" height="237" viewBox="0 0 257 237" xmlns="http://www.w3.org/2000/svg" xmlns:xlink="http://www.w3.org/1999/xlink"><svg width="14" height="23" viewBox="0 0 14 23" x="157" y="100"><title>Untitled</title><path d="M3.7.34c.18-.1.2-.03.94-.03h8.52c.28 0 .4 0 .55.1.2.2.1.4.1.4 0 .1-4.4 10.6-4.4 10.8-.03.2.06.44.3.44h1.9c.17 0 .5.14.3.52-.23.37-7.54 9.5-7.7 9.7-.16.2-.58.2-.58-.22 0-.4.66-9.48.66-9.68 0-.2-.13-.34-.36-.34H.7c-.18 0-.42-.05-.4-.37C.37 11.3 3 2.15 3.56.55a.33.33 0 0 1 .15-.2" fill="#D18316" fill-rule="evenodd"/></svg><svg width="100" height="100" viewBox="0 0 100 100" y="37"><path fill="#4681A0" d="M50 0a50 50 0 1 1 0 100A50 50 0 0 1 50 0z"/><path fill="#3F7490" d="M95.83 70H4.17a50 50 0 0 0 91.66 0z"/><path fill="#EDEDED" d="M76 77H24a4 4 0 0 1-4-4V49a30 30 0 0 1 60 0v24a4 4 0 0 1-4 4z"/><path fill="#fff" d="M80 55H46a5 5 0 0 1-5-5 5 5 0 0 1 2-3.98V46l22.62-22.62-.9-.52L42.3 45.3l-.07.05A5.94 5.94 0 0 0 40 50a6 6 0 0 0 6 6h34v-1z"/><path fill="#93D3E8" d="M80 49a29.98 29.98 0 0 0-14.38-25.62L43 46v.02c-1.2.9-2 2.35-2 3.98a5 5 0 0 0 5 5h34v-6z"/><path fill="#fff" d="M46 47a3 3 0 1 1 0 6 3 3 0 0 1 0-6z"/><path fill="#A9DCED" d="M80 55v-6a29.98 29.98 0 0 0-14.38-25.62L62 27c7.3 5.47 12 14.2 12 24v4h6z"/><path fill="#EFC75E" d="M20 70v3a4 4 0 0 0 4 4h52a4 4 0 0 0 4-4v-8H20v5z"/><path fill="#D5D5D5" d="M30 73V49a30 30 0 0 1 25-29.58 30.08 30.08 0 0 0-5-.42 30 30 0 0 0-30 30v24a4 4 0 0 0 4 4h10a4 4 0 0 1-4-4z"/><path fill="#D7B354" d="M30 73v-8H20v8a4 4 0 0 0 4 4h10a4 4 0 0 1-4-4zm46 1H24a4 4 0 0 1-4-4v3a4 4 0 0 0 4 4h52a4 4 0 0 0 4-4v-3a4 4 0 0 1-4 4z"/><path fill="#C1A14B" d="M30.14 74H24a4 4 0 0 1-4-4v3a4 4 0 0 0 4 4h10a4 4 0 0 1-3.86-3z"/><path fill="#E2574C" d="M29.5 48a4.5 4.5 0 1 1 0 9 4.5 4.5 0 0 1 0-9z"/><path fill="#CB4E44" d="M31.5 56a4.5 4.5 0 0 1-4.5-4.5c0-1.37.63-2.58 1.6-3.4a4.5 4.5 0 0 0 .9 8.9c1.1 0 2.12-.42 2.9-1.1a4.46 4.46 0 0 1-.9.1z"/></svg><svg width="100" height="100" viewBox="0 0 100 100" x="157"><path class="cbackground" fill="#EFC75E" d="M50 0a50 50 0 1 1 0 100A50 50 0 0 1 50 0z"/><path fill="#E2574C" d="M72 40H28a10 10 0 0 0-10 10v38.4c8.67 7.24 19.83 11.6 32 11.6s23.33-4.36 32-11.6V50a10 10 0 0 0-10-10z"/><path fill="#CB4E44" d="M25 51v42.3c.98.56 1.98 1.1 3 1.6V51a4 4 0 0 1 4-4h-3a4 4 0 0 0-4 4z"/><path fill="#F19088" d="M71 46H29a5 5 0 0 0-5 5v41.72c.66.4 1.32.78 2 1.15V51a3 3 0 0 1 3-3h42a3 3 0 0 1 3 3v42.87c.68-.37 1.34-.76 2-1.16V51a5 5 0 0 0-5-5z"/><path fill="#CB4E44" d="M18 50v38.4c.97.82 1.97 1.58 3 2.32V50a10 10 0 0 1 10-10h-3a10 10 0 0 0-10 10z"/><path fill="#F1ABA6" d="M34.5 55h31a1.5 1.5 0 0 1 0 3h-31a1.5 1.5 0 0 1 0-3z"/><path class="chandle" fill="#324D5B" d="M68.5 28H63v12h-3V28H40v12h-3V28h-5.5a2.5 2.5 0 0 1 0-5h37a2.5 2.5 0 0 1 0 5z"/><path class="cplane" fill="#F2F1EF" d="M58.66 69.33c-.77-.77-2.7-.08-3.62.84l-3.52 3.52c-.34-.4-8.88-3.4-9.2-3.1l-1.1 1.1a.8.8 0 0 0 0 1.1l6.24 4.9L45 80.2a7.4 7.4 0 0 0-.67.83l-.1-.1c-.15-.15-2.4-.44-2.55-.28l-.57.57a.4.4 0 0 0 0 .56l.3.28 1.5 1.5c-.3.74-.4 1.4-.1 1.67.3.3 1 .18 1.7-.12l1.5 1.5.3.3a.4.4 0 0 0 .6 0l.56-.5a7.4 7.4 0 0 0-.3-2.55l-.1-.1c.35-.25.64-.5.83-.67l2.43-2.45 4.9 6.23a.8.8 0 0 0 1.1 0l1.13-1.1c.3-.3-2.75-8.87-3.07-9.2l3.5-3.5c.92-.92 1.6-2.85.83-3.62z"/><path d="M37 28h3v3h-3zm23 0h3v3h-3z" fill="#233640"/><path fill="#2D4552" d="M70.95 26h-41.9a2.5 2.5 0 0 0 2.45 2h37a2.5 2.5 0 0 0 2.45-2z"/></svg><svg width="100" height="100" viewBox="0 0 100 100" y="137"><path fill="#EDEDED" d="M50 0a50 50 0 1 0 0 100A50 50 0 0 0 50 0z"/><path fill="#D5D5D5" d="M44.9 3H55l10 70-15.02 13L35 73l9.9-70z"/><path fill="#DAD8D8" d="M50 0a55.2 55.2 0 0 1 18.42 3.5L50 18 31.64 3.5A54.8 54.8 0 0 1 50 0z"/><path fill="#E2574C" d="M44.9 1H55l10 70-15.02 13L35 71l9.9-70z"/><path fill="#CB4E44" d="M49.98 84l.02-.02V1h-5.1L35 71zM44.5 59h11a1.5 1.5 0 0 1 0 3h-11a1.5 1.5 0 0 1 0-3z"/><path fill="#B6463D" d="M50 59h-5.5a1.5 1.5 0 0 0 0 3H50v-3z"/><path fill="#D15248" d="M43.25 12.67L50 18l6.7-5.26L55 1H44.9z"/><path fill="#BE4B41" d="M44.9 1l-1.65 11.67L50 18V1z"/><path fill="#EC655B" d="M50 0c6.17 0 12.07 1.12 17.53 3.17L50 17 32.47 3.18A49.87 49.87 0 0 1 50 0z"/><path fill="#EFC75E" d="M44.5 58h11a1.5 1.5 0 0 1 0 3h-11a1.5 1.5 0 0 1 0-3z"/><path fill="#D5D5D5" d="M99.18 41H84v5h15.83a49.82 49.82 0 0 0-.65-5z"/><path fill="#fff" d="M97.72 35.04l-9.8 1.4A4.57 4.57 0 0 0 84 40.96V41h15.18a50.02 50.02 0 0 0-1.46-5.96z"/></svg><svg width="157" height="37" viewBox="0 0 157 37"><title>logo</title><g fill="none" fill-rule="evenodd"><path d="M119.33 14.88s3.2-1.6 2.96 1.14c0 0 1.5-3.18 4.4-1.82 1.2.55 2.04 1.95 2.44 4.3.7 4.1 2.47 4.4 3.43 2.73 0 0-2.04-1.3-1.7-3.96.65-4.94 7.55-3.94 8.86-.6 0 0-2.38-5.9.5-10.93 0 0 2.4-1.72 3.03-.1-.83 2.84-1.13 11.75-1.13 11.75s.4 3.4 1.7 3.1c2.47-.6 2.97-6.5 2.24-8.5-.32-.8 3.3-2 6.05 2.8 4.8 8.43-1.18 12-4.7 10.3-3-1.4-.87-6.6 4.53-5.45l.05.7c-1.53-.7-4.76-.24-4.82 2.37-.05 1.93 3.37 2.2 3.87-1.6.45-3.36-2.57-6.8-2.87-6.65-.3.12-1.3 6.7-4.57 6.8-1.54 0-2.5-1.7-2.5-1.7-.16.9-2.64 3.85-7.46 2.03-1.3 1.25-3.1 1.48-5.18.5-2.1-.96-2.42-3.25-2.8-4.9-.34-1.55-2.34-1.5-2.94-.6-.46.66-.23 4.76-.4 4.8 0 0-2.15.5-2.76-.17-.54-.6-.3-4.88-.33-6.4zm19.9 3.27c-1.33-2.98-4.87-2.84-5.24-.54-.4 2.3 2 4.2 4.1 2.9 1.4-.8 1.1-2.3 1.1-2.3zM47 5.62c-1.75 1.13-1.83-1.1-10.83-1.55-3.2-.16-6.6.16-10.1.67-.2 3.04-1.55 20.24-3.04 21-1.58.78-3.87-.86-3.87-.86s.97-7.04 3.23-19.56c-5.2.88-10.5 1.94-15.7 2.3C-3.1 8.26.1.6 3.1 1.5c3.1.9.1 3.1 3.5 3.76 3.4.67 13.6-1.94 25.68-3.37C45.6.3 49.2 4.2 47 5.6" fill="#333C46"/><path d="M85.67 11.36c-2.06.27-1.98 9.18-5.94 9.68-2.9.37-1.5-5.3-1.5-5.3s-.7-1.57-2.75-1.3c-2.3.28-.7 6.12-3.34 6.3-.7-.3-1-7.87 1.16-15.12 0 0-1.48-2.48-3.4-.72-2.37 2.2-.6 10.94-.6 10.94-4.96-5.72-10.84.95-7.97 4.75.54.7.74.8.74.8-.96 1.6-3.1 1-3.28-2.78-.2-2.38-.8-4.28-2-4.98-2.8-1.73-5.36 2.5-5.36 2.5C51.7 13.4 48.7 15 48.7 15s-1.47 5.9-4.54 6.57c-2.63.6-3.03-1.34-3.03-1.34s3.46-1.2 4.52-3.5c1.72-3.7-3.47-5.83-5.97-3.1-1.97 2.1-2.27 5-1.84 6.4 0 0-.3 1.44-1.5 1.64-1.15.2-2.65-.94-.42-6.13 2.24-5.18-1.95-4.28-3.6-2.75-1.65 1.5-2-1.8-3.7-.3-1.46 1.3-.06 4.7-1.02 8 0 0 .96 1.4 1.76.06.65-1.08.63-6.16.63-6.16.9.7 3.3-.13 3.4-.16-1.66 3.56-2.14 8.7 1.8 8.4 2.56-.2 3-1.5 3-1.5s1.4 1.95 4.5 1.8a6.92 6.92 0 0 0 5.97-4.28c.04.93.13 2.52.34 2.74.6.7 2.55.2 2.55.2.15-.03 0-4.1.4-4.8.9-1.6 3.26-1.8 3.42-.2.16 1.67.2 4.75 2.28 5.7 2.05.98 4 .78 5.3-.4.5.2 1.15.36 1.98.4 3.57.1 4.55-2.14 4.55-2.14s.67 1.9 2.12 1.8c2.22-.1 2.9-3.14 2.9-3.14 0 1.9 1.4 3.56 4.87 3.45 2.33-.1 3.84-3 3.84-3-.57 2.48-1.53 15.75-.7 16.55.88.8 2.4.7 2.84-.16 0 0 .08-9.07.75-15.38.67-6.3 1.95-7.76 1.95-7.76s-.43-1.57-2.5-1.3zm-41.9 2.7c1.7.34.56 4.4-2.8 5.02-1.08-1.76 1.18-5.3 2.8-5zm20.1 5.2c-1.27-2.45 2.7-5.63 5.26-1.93l.02 1.3c-.42 1.88-4.02 3.08-5.28.63zm27.58-9.44c-.1 6.38-1.85 12.05-1.2 13.1.24.44 3.4.3 3.4-.1-.04-1.34.16-4.22.74-9.02 1.1.4 1.9 8 4.8 7.95 2.92-.06 6.4-7.8 7.3-9.93.9 0-1.2 8.12 2.1 14.5 3.35 6.36 10.1 6.06 10.3 5.04.24-1.02-6.74.5-8.23-10.24-1.37-9.87 2.26-19.3 2.26-19.3s-2.9-1.56-4.64-.5c-1.73 1.05-3.27 12.96-8.5 18-.48.14-2.95-5.14-3.3-9.7-.14-1.8-5.17.2-5.17.2" fill="#333C46"/><path d="M114.2 14.55s2.66-.85 2.78 1.47c.07 1.33.06 4.85-.3 5.36-.26.37-2 .36-2.37.22-.5-.2-.2-4.97-.1-7.05" fill="#333C46"/><path d="M115.9 2.32c.08-.05.1-.02.43-.02h3.97c.13 0 .2 0 .26.04.06.06.04.15.03.18a714.86 714.86 0 0 0-2.1 5c0 .1 0 .2.1.2h.9c.02 0 .2.07.1.25a326 326 0 0 1-3.6 4.52c-.08 0-.28 0-.28-.1 0-.2.3-4.5.3-4.6 0-.1-.06-.16-.17-.16h-1.45c-.1 0-.2-.03-.2-.18.03-.15 1.27-4.4 1.5-5.15a.15.15 0 0 1 .1-.1" fill="#D18316"/><path d="M155.18 9.5a1.47 1.47 0 0 1-.02 2.94c-.82 0-1.5-.64-1.5-1.47 0-.82.68-1.47 1.5-1.47h.02zm-.02.3c-.64 0-1.1.53-1.1 1.17a1.1 1.1 0 0 0 1.12 1.17c.64 0 1.1-.52 1.1-1.17 0-.64-.46-1.17-1.1-1.17h-.02zm-.22 1.93h-.34v-1.46c.14-.02.32-.05.56-.05.28 0 .4.04.5.12a.4.4 0 0 1 .15.3c0 .18-.1.3-.3.36.2.06.3.17.3.37l.1.36h-.3c-.04-.06-.06-.18-.1-.35-.03-.16-.1-.23-.3-.23h-.2v.58zm0-.82h.17c.2 0 .4 0 .4-.2s-.1-.2-.3-.2h-.2v.4z" fill="#333C46"/></g></svg></svg>