<svg width="257" height="237" viewBox="0 0 257 237" xmlns="http://www.w3.org/2000/svg" xmlns:xlink="http://www.w3.org/1999/xlink"><svg width="14" height="23" viewBox="0 0 14 23" x="157" y="100"><title>Untitled</title><path d="M3.7.34c.18-.09.2-.03.94-.03h8.52c.27 0 .41-.03.55.1.13.11.08.32.06.36-.03.05-4.4 10.58-4.45 10.75-.05.17.04.42.3.42h1.91c.13 0 .48.15.26.53-.22.38-7.53 9.5-7.69 9.7-.16.19-.58.2-.58-.22 0-.4.65-9.48.65-9.68 0-.2-.14-.31-.37-.31l-3.11-.01c-.17 0-.4-.06-.38-.38.04-.29 2.7-9.44 3.22-11.03a.33.33 0 0 1 .16-.2" fill="#D18316" fill-rule="evenodd"/></svg><svg width="100" height="100" viewBox="0 0 100 100" y="37"><path fill="#4681A0" d="M50 0a50 50 0 1 1 0 100A50 50 0 0 1 50 0z"/><path fill="#3F7490" d="M95.83 70H4.17a50 50 0 0 0 91.66 0z"/><path fill="#EDEDED" d="M76 77H24a4 4 0 0 1-4-4V49a30 30 0 0 1 60 0v24a4 4 0 0 1-4 4z"/><path fill="#fff" d="M80 55H46a5 5 0 0 1-5-5 5 5 0 0 1 2-3.98V46l22.62-22.62-.9-.52L42.3 45.3l-.06.06A5.94 5.94 0 0 0 40 50a6 6 0 0 0 6 6h34v-1z"/><path fill="#93D3E8" d="M80 49a29.98 29.98 0 0 0-14.38-25.62L43 46v.02A5 5 0 0 0 41 50a5 5 0 0 0 5 5h34v-6z"/><path fill="#fff" d="M46 47a3 3 0 1 1 0 6 3 3 0 0 1 0-6z"/><path fill="#A9DCED" d="M80 55v-6a29.98 29.98 0 0 0-14.38-25.62L62 27a29.95 29.95 0 0 1 12 24v4h6z"/><path fill="#EFC75E" d="M20 70v3a4 4 0 0 0 4 4h52a4 4 0 0 0 4-4v-8H20v5z"/><path fill="#D4D4D4" d="M30 73V49a30 30 0 0 1 25-29.58 30.08 30.08 0 0 0-5-.42 30 30 0 0 0-30 30v24a4 4 0 0 0 4 4h10a4 4 0 0 1-4-4z"/><path fill="#D7B354" d="M30 73v-8H20v8a4 4 0 0 0 4 4h10a4 4 0 0 1-4-4zm46 1H24a4 4 0 0 1-4-4v3a4 4 0 0 0 4 4h52a4 4 0 0 0 4-4v-3a4 4 0 0 1-4 4z"/><path fill="#C1A14B" d="M30.14 74H24a4 4 0 0 1-4-4v3a4 4 0 0 0 4 4h10a3.99 3.99 0 0 1-3.86-3z"/><path fill="#E2574C" d="M29.5 48a4.5 4.5 0 1 1 0 9 4.5 4.5 0 0 1 0-9z"/><path fill="#CB4E44" d="M31.5 56a4.5 4.5 0 0 1-4.5-4.5c0-1.37.63-2.58 1.6-3.4a4.5 4.5 0 0 0 .9 8.9 4.46 4.46 0 0 0 2.9-1.1 4.46 4.46 0 0 1-.9.1z"/></svg><svg width="100" height="100" viewBox="0 0 100 100" x="157"><path class="cbackground" fill="#EFC75E" d="M50 0a50 50 0 1 1 0 100A50 50 0 0 1 50 0z"/><path fill="#E2574C" d="M72 40H28a10 10 0 0 0-10 10v38.41C26.67 95.64 37.83 100 50 100s23.33-4.36 32-11.59V50a10 10 0 0 0-10-10z"/><path fill="#CB4E44" d="M25 51v42.3c.98.56 1.98 1.1 3 1.6V51a4 4 0 0 1 4-4h-3a4 4 0 0 0-4 4z"/><path fill="#F19088" d="M71 46H29a5 5 0 0 0-5 5v41.72c.66.4 1.32.78 2 1.15V51a3 3 0 0 1 3-3h42a3 3 0 0 1 3 3v42.87a49.4 49.4 0 0 0 2-1.16V51a5 5 0 0 0-5-5z"/><path fill="#CB4E44" d="M18 50v38.41a50.12 50.12 0 0 0 3 2.3V50a10 10 0 0 1 10-10h-3a10 10 0 0 0-10 10z"/><path fill="#F1ABA6" d="M34.5 55h31a1.5 1.5 0 0 1 0 3h-31a1.5 1.5 0 0 1 0-3z"/><path class="chandle" fill="#324D5B" d="M68.5 28H63v12h-3V28H40v12h-3V28h-5.5a2.5 2.5 0 1 1 0-5h37a2.5 2.5 0 1 1 0 5z"/><path class="cplane" fill="#F2F1EF" d="M58.66 69.33c-.77-.77-2.7-.08-3.62.84l-3.52 3.52c-.34-.32-8.88-3.36-9.19-3.06l-1.1 1.11a.79.79 0 0 0 0 1.12l6.23 4.9L45 80.2a7.4 7.4 0 0 0-.67.82l-.1-.1c-.15-.15-2.4-.44-2.55-.28l-.57.57a.4.4 0 0 0 0 .56l.28.28 1.5 1.5c-.3.74-.4 1.39-.12 1.67.29.3.94.18 1.68-.12l1.48 1.48.3.3a.4.4 0 0 0 .56 0l.57-.57c.15-.16-.13-2.4-.29-2.55l-.1-.1c.35-.25.63-.48.82-.67l2.46-2.46 4.9 6.22a.79.79 0 0 0 1.11 0l1.12-1.1c.3-.32-2.75-8.86-3.07-9.19l3.52-3.51c.92-.92 1.6-2.86.83-3.63z"/><path d="M37 28h3v3h-3zm23 0h3v3h-3z" fill="#233640"/><path fill="#2D4552" d="M70.95 26h-41.9a2.5 2.5 0 0 0 2.45 2h37a2.5 2.5 0 0 0 2.45-2z"/></svg><svg width="100" height="100" viewBox="0 0 100 100" y="137"><path fill="#EDEDED" d="M50 0a50 50 0 1 0 0 100A50 50 0 0 0 50 0z"/><path fill="#D5D5D5" d="M44.9 3H55l10 70-15.02 13L35 73l9.9-70z"/><path fill="#DAD8D8" d="M50 0c6.17 0 12.97 1.46 18.42 3.5L50 18 31.64 3.49A54.78 54.78 0 0 1 50 0z"/><path fill="#E2574C" d="M44.9 1H55l10 70-15.02 13L35 71l9.9-70z"/><path fill="#CB4E44" d="M49.98 84l.02-.02V1h-5.1L35 71zM44.5 59h11a1.5 1.5 0 0 1 0 3h-11a1.5 1.5 0 0 1 0-3z"/><path fill="#B6463D" d="M50 59h-5.5a1.5 1.5 0 0 0 0 3H50v-3z"/><path fill="#D15248" d="M43.25 12.67L50 18l6.69-5.27L55.02 1H44.9z"/><path fill="#BE4B41" d="M44.9 1l-1.65 11.67L50 18V1z"/><path fill="#EC655B" d="M50 0a49.87 49.87 0 0 1 17.53 3.17L50 17 32.47 3.17A49.87 49.87 0 0 1 50 0z"/><path fill="#EFC75E" d="M44.5 58h11a1.5 1.5 0 0 1 0 3h-11a1.5 1.5 0 0 1 0-3z"/><path fill="#D5D5D5" d="M99.18 41H84v5h15.83a49.82 49.82 0 0 0-.65-5z"/><path fill="#fff" d="M97.72 35.04l-9.8 1.4A4.57 4.57 0 0 0 84 40.96V41h15.18a49.73 49.73 0 0 0-1.46-5.96z"/></svg><svg width="157" height="37" viewBox="0 0 157 37"><title>logo</title><g fill="none" fill-rule="evenodd"><path d="M119.33 14.88s3.2-1.6 2.96 1.15c0 0 1.5-3.2 4.47-1.83 1.22.55 2.07 1.95 2.47 4.3.7 4.09 2.47 4.39 3.43 2.73 0 0-2.04-1.3-1.7-3.96.65-4.94 7.55-3.94 8.86-.6 0 0-2.38-5.89.51-10.93 0 0 2.4-1.72 3.02-.11-.82 2.85-1.12 11.76-1.12 11.76s.38 3.44 1.7 3.14c2.46-.57 2.96-6.46 2.23-8.47-.33-.8 3.3-1.99 6.04 2.83 4.8 8.44-1.15 11.99-4.7 10.3-2.96-1.42-.84-6.6 4.56-5.45l.06.71c-1.54-.73-4.77-.25-4.83 2.36-.04 1.93 3.37 2.2 3.88-1.6.45-3.36-2.57-6.8-2.87-6.65-.31.14-1.3 6.72-4.57 6.8-1.58.03-2.53-1.71-2.53-1.71-.17.9-2.65 3.88-7.47 2.06-1.31 1.23-3.09 1.46-5.18.49-2.08-.97-2.41-3.26-2.78-4.9-.36-1.56-2.35-1.5-2.96-.62-.45.66-.23 4.76-.39 4.8 0 0-2.15.49-2.76-.17-.54-.6-.31-4.88-.33-6.43zm19.91 3.27c-1.34-2.98-4.88-2.84-5.25-.53-.37 2.3 2 4.13 4.14 2.85 1.39-.84 1.11-2.32 1.11-2.32zM47 5.62c-1.74 1.13-1.82-1.1-10.82-1.55-3.2-.16-6.6.16-10.1.67-.21 3.04-1.55 20.24-3.04 20.99-1.58.79-3.87-.85-3.87-.85s.97-7.04 3.23-19.56c-5.19.88-10.5 1.94-15.63 2.29C-3.1 8.27.1.6 3.16 1.5c3.06.9.09 3.1 3.48 3.77 3.4.67 13.61-1.94 25.67-3.37C45.58.34 49.19 4.2 47 5.61" fill="#333C46"/><path d="M85.67 11.36c-2.06.27-1.98 9.18-5.94 9.68-2.9.37-1.5-5.3-1.5-5.3s-.7-1.57-2.75-1.31c-2.3.3-.7 6.13-3.34 6.32-.7-.3-1-7.88 1.16-15.12 0 0-1.48-2.5-3.4-.72-2.37 2.19-.6 10.93-.6 10.93-4.96-5.72-10.84.95-7.97 4.75.54.71.74.88.74.88-.96 1.62-3.1 1.04-3.29-2.76-.11-2.38-.78-4.28-1.91-4.98-2.8-1.72-5.35 2.5-5.35 2.5.24-2.75-2.75-1.15-2.75-1.15s-1.48 5.89-4.55 6.56c-2.63.58-3.04-1.35-3.04-1.35s3.48-1.17 4.54-3.48c1.73-3.72-3.46-5.83-5.96-3.12-1.96 2.12-2.26 5-1.83 6.4 0 0-.32 1.46-1.5 1.66-1.18.2-2.68-.94-.45-6.13 2.24-5.18-1.95-4.28-3.6-2.75-1.65 1.53-2-1.77-3.7-.28-1.46 1.29-.06 4.7-1.02 8.03 0 0 .96 1.4 1.76.05.64-1.07.62-6.15.62-6.15.94.7 3.34-.15 3.42-.18-1.65 3.56-2.13 8.7 1.82 8.39 2.57-.2 3.03-1.48 3.03-1.48s1.4 1.94 4.5 1.78a6.88 6.88 0 0 0 5.95-4.27c.03.95.13 2.53.34 2.75.6.66 2.55.17 2.55.17.16-.03 0-4.1.4-4.8.89-1.61 3.28-1.79 3.44-.2.17 1.67.2 4.75 2.3 5.72 2.03.96 3.98.76 5.28-.4.5.19 1.15.34 1.98.37 3.57.11 4.55-2.13 4.55-2.13s.67 1.89 2.12 1.82c2.23-.11 2.92-3.15 2.92-3.15 0 1.88 1.41 3.57 4.86 3.46 2.34-.07 3.85-2.98 3.85-2.98-.58 2.47-1.54 15.75-.69 16.55.85.8 2.4.7 2.82-.15 0 0 .08-9.04.75-15.35.67-6.31 1.95-7.76 1.95-7.76s-.44-1.58-2.5-1.32zm-41.9 2.71c1.7.33.56 4.38-2.8 5.01-1.08-1.76 1.18-5.31 2.8-5zm20.1 5.2c-1.27-2.46 2.7-5.64 5.26-1.94l.02 1.29c-.42 1.89-4.01 3.09-5.28.65zm27.58-9.45c-.1 6.38-1.85 12.05-1.21 13.11.25.43 3.41.3 3.4-.12-.03-1.33.17-4.2.75-9.01 1.13.39 1.9 8 4.86 7.95 2.96-.06 6.38-7.79 7.28-9.93.9-.01-1.19 8.12 2.16 14.49 3.35 6.37 10.1 6.07 10.33 5.05.21-1.02-6.77.49-8.26-10.24-1.37-9.87 2.26-19.3 2.26-19.3s-2.9-1.56-4.62-.5c-1.72 1.05-3.26 12.95-8.48 18-.48.14-2.95-5.14-3.3-9.69-.14-1.8-5.17.19-5.17.19" fill="#333C46"/><path d="M114.2 14.55s2.66-.85 2.78 1.47c.07 1.33.06 4.85-.3 5.36-.26.37-2.01.36-2.37.22-.55-.21-.25-4.97-.11-7.05" fill="#333C46"/><path d="M115.89 2.32c.09-.05.1-.02.44-.02h3.97c.13 0 .2-.01.26.04.06.06.04.15.03.18a714.86 714.86 0 0 0-2.08 5c-.02.09.02.2.14.2h.9c.06 0 .22.07.11.25-.1.18-3.5 4.43-3.58 4.52-.07.1-.27.1-.27-.1 0-.19.3-4.42.3-4.51 0-.1-.06-.15-.17-.15h-1.45c-.08 0-.2-.03-.18-.18.02-.13 1.26-4.4 1.5-5.14a.15.15 0 0 1 .08-.1" fill="#D18316"/><path d="M155.18 9.5a1.47 1.47 0 1 1-.02 2.94c-.82 0-1.49-.64-1.49-1.47 0-.81.67-1.46 1.5-1.46zm-.02.3c-.64 0-1.12.53-1.12 1.17 0 .65.48 1.17 1.14 1.17.64 0 1.1-.52 1.1-1.17 0-.64-.46-1.17-1.11-1.17zm-.22 1.93h-.34v-1.46c.14-.02.32-.05.56-.05.28 0 .4.04.5.12a.4.4 0 0 1 .15.3c0 .18-.13.3-.3.36.14.05.22.16.26.36.05.22.07.31.1.36h-.36a1.3 1.3 0 0 1-.11-.35c-.03-.16-.12-.23-.3-.23h-.16v.58zm0-.82h.17c.18 0 .33-.07.33-.22 0-.13-.1-.22-.3-.22a.8.8 0 0 0-.2.02v.42z" fill="#333C46"/></g></svg></svg>