<svg xmlns="http://www.w3.org/2000/svg" width="100" height="100" viewBox="0 0 100 100"><path fill="#3CB29D" d="M50 0c27.614 0 50 22.386 50 50s-22.386 50-50 50S0 77.614 0 50 22.386 0 50 0z"/><path fill="#334E5C" d="M45.173 32C58.708 32 69.68 42.97 69.68 56.5S58.708 81 45.173 81 20.667 70.03 20.667 56.5 31.64 32 45.173 32z"/><path fill="#2D4552" d="M49.173 76c-13.535 0-24.507-10.97-24.507-24.5 0-4.626 1.284-8.952 3.513-12.643-4.63 4.457-7.514 10.71-7.514 17.643 0 13.53 10.972 24.5 24.507 24.5 8.907 0 16.703-4.75 20.994-11.856C61.76 73.386 55.774 76 49.173 76z"/><path fill="#2F4856" d="M67.762 66.018c.14-1.345.223-2.74.223-4.238 0-6.884-1.447-11.813-4.708-17.837a21.3 21.3 0 0 1-2.22-6.092 24.45 24.45 0 0 0-7.84-4.492c.068 3.635-.77 7.25-2.59 10.51a37.053 37.053 0 0 0-4.645 17.912 37.065 37.065 0 0 0 4.645 17.913h.043c.143.18.406.346.758.5 7.385-1.945 13.41-7.246 16.334-14.175z"/><path fill="#2A414D" d="M49.173 76l-.32-.008a37.26 37.26 0 0 0 1.774 3.7h.043c.142.18.404.346.754.498l.053-.013.77-.227.673-.206.746-.268.662-.25.715-.306.654-.298.68-.337.65-.348.64-.365.647-.4.593-.386c.227-.153.447-.314.667-.475l.522-.38c.256-.198.504-.404.753-.61l.382-.316c.37-.32.73-.65 1.078-.993l.2-.205c.28-.282.558-.567.825-.862l.315-.364c.22-.253.438-.506.646-.767l.324-.42c.194-.253.386-.51.57-.77l.31-.454c.178-.263.35-.527.516-.796l.127-.21A24.41 24.41 0 0 1 49.173 76z"/><path fill="#EDEDED" d="M70.985 61.78c0-6.884-1.447-11.813-4.708-17.837-2.405-4.38-3.184-9.23-2.25-14l1.552-8.058c.06-.4.077-.542.077-1.097 0-3.204-2.564-5.79-5.742-5.79-3.11 0-5.67 2.586-5.67 5.79 0 .415-.01.696.08 1.097l1.55 7.98c.854 4.77.155 9.698-2.248 14a37.053 37.053 0 0 0-4.645 17.914 37.065 37.065 0 0 0 4.645 17.912h.043c.595.746 3.182 1.308 6.284 1.308 3.388 0 6.155-.67 6.39-1.518 3.21-5.96 4.64-10.87 4.64-17.702z"/><path fill="#2D4552" d="M42.667 40.5a2.5 2.5 0 1 0-5 0 2.5 2.5 0 0 0 5 0zm6.5-1.5a2.5 2.5 0 1 0 0 5 2.5 2.5 0 0 0 0-5zm-5 6a2.5 2.5 0 1 0 0 5 2.5 2.5 0 0 0 0-5z"/><path fill="#DDDCDC" d="M56.67 79.693h-.043a37.08 37.08 0 0 1-4.645-17.913c0-6.26 1.614-12.44 4.645-17.913 2.403-4.303 3.102-9.23 2.25-14.002l-1.553-7.98c-.06-.37-.08-.572-.08-1.095 0-2.675 1.786-4.912 4.185-5.58a5.716 5.716 0 0 0-1.514-.21c-3.11 0-5.67 2.585-5.67 5.79 0 .585.02.68.08 1.096l1.55 7.98c.854 4.77.155 9.698-2.248 14a37.053 37.053 0 0 0-4.645 17.914 37.065 37.065 0 0 0 4.645 17.913h.043c.595.745 3.182 1.307 6.284 1.307.528 0 1.038-.018 1.53-.05-2.42-.144-4.317-.634-4.814-1.257z"/><path d="M64.304 38.986a20.366 20.366 0 0 1-.618-3.99H56.18a20.903 20.903 0 0 1-.614 3.99h8.738zm-8.596-9.99l.17.87a22.22 22.22 0 0 1 .32 3.12h7.483c.046-1.014.15-2.03.35-3.043l.18-.947H55.71z" fill="#E2574C"/><path d="M55.876 29.865a22.22 22.22 0 0 1 .32 3.122h3a22.385 22.385 0 0 0-.32-3.122l-.17-.87h-3l.17.87zm.305 5.13a20.903 20.903 0 0 1-.613 3.99h3c.335-1.31.537-2.644.614-3.99h-3z" fill="#D25047"/><path d="M39.583 38.542a2.5 2.5 0 0 1 2.5 2.5c0 .59-.212 1.123-.552 1.55a2.493 2.493 0 0 0 1.137-2.09 2.5 2.5 0 0 0-2.5-2.5c-.792 0-1.49.374-1.948.95.39-.26.86-.41 1.363-.41zM44.167 45c-.792 0-1.49.375-1.948.95.392-.257.86-.41 1.363-.41a2.5 2.5 0 0 1 2.5 2.5c0 .59-.212 1.124-.552 1.55a2.493 2.493 0 0 0 1.137-2.09 2.5 2.5 0 0 0-2.5-2.5zm5-6c-.792 0-1.49.375-1.948.95.392-.257.86-.41 1.363-.41a2.5 2.5 0 0 1 2.5 2.5c0 .59-.212 1.124-.552 1.55a2.493 2.493 0 0 0 1.137-2.09 2.5 2.5 0 0 0-2.5-2.5z" fill="#2C4350"/></svg>