<svg width="30" height="22" viewBox="0 0 30 22" xmlns="http://www.w3.org/2000/svg"><title>cloud-add</title><path d="M26.15 8.297c.043-.32.1-.634.1-.964 0-4.05-3.356-7.333-7.5-7.333a7.515 7.515 0 0 0-5.973 2.943c-.492-.116-1-.193-1.527-.193-3.625 0-6.563 2.872-6.563 6.417 0 .1.026.19.03.29C1.997 10.24 0 12.67 0 15.583 0 19.128 2.937 22 6.563 22H22.5c4.144 0 7.5-3.282 7.5-7.333 0-2.747-1.562-5.114-3.85-6.37zm-5.525 6.37h-3.75v3.666h-3.75v-3.666h-3.75V11h3.75V7.333h3.75V11h3.75v3.667z" fill="#000" fill-rule="evenodd"/></svg>