<?xml version="1.0" encoding="UTF-8" standalone="no"?><svg width="257" height="237" viewBox="0 0 257 237" xmlns="http://www.w3.org/2000/svg" xmlns:xlink="http://www.w3.org/1999/xlink"><svg width="14" height="23" viewBox="0 0 14 23" id="bolt" x="157" y="100"><title>Untitled</title><path d="M3.692.344c.19-.09.21-.037.944-.037h8.52c.279 0 .414-.024.55.097.137.12.087.322.062.368-.027.045-4.404 10.58-4.45 10.747-.047.167.039.417.306.42.269.002 1.776 0 1.911 0s.475.149.253.528c-.22.379-7.523 9.503-7.683 9.697-.16.194-.583.199-.583-.21 0-.41.645-9.482.645-9.68 0-.197-.137-.318-.371-.318L.69 11.95c-.171 0-.408-.058-.376-.376.032-.292 2.696-9.44 3.22-11.03a.33.33 0 0 1 .157-.201" fill="#D18316" fill-rule="evenodd"/></svg><svg width="100" height="100" viewBox="0 0 100 100" id="helmet" y="37"><path fill="#4681A0" d="M50 0c27.614 0 50 22.386 50 50s-22.386 50-50 50S0 77.614 0 50 22.386 0 50 0z"/><path fill="#3F7490" d="M95.827 70H4.172C11.889 87.656 29.499 100 50 100s38.111-12.344 45.827-30z"/><path fill="#EDEDED" d="M76 77H24a4 4 0 0 1-4-4V49c0-16.568 13.432-30 30-30s30 13.432 30 30v24a4 4 0 0 1-4 4z"/><path fill="#fff" d="M80 55H46a5 5 0 0 1-5-5c0-1.633.795-3.069 2.006-3.982L43 46l22.617-22.617c-.294-.18-.595-.35-.896-.519L42.293 45.293l-.059.059A5.942 5.942 0 0 0 40 50c0 3.309 2.691 6 6 6h34v-1z"/><path fill="#93D3E8" d="M80 49c0-10.847-5.758-20.348-14.383-25.617L43 46l.006.018C41.795 46.931 41 48.367 41 50a5 5 0 0 0 5 5h34v-6z"/><path fill="#fff" d="M46 47a3 3 0 1 1 0 6 3 3 0 0 1 0-6z"/><path fill="#A9DCED" d="M80 55v-6c0-10.847-5.758-20.348-14.383-25.617L62 27c7.286 5.473 12 14.186 12 24v4h6z"/><path fill="#EFC75E" d="M20 70v3a4 4 0 0 0 4 4h52a4 4 0 0 0 4-4v-8H20v5z"/><path fill="#D4D4D4" d="M30 73V49c0-14.864 10.813-27.196 25-29.577A30.077 30.077 0 0 0 50 19c-16.568 0-30 13.432-30 30v24a4 4 0 0 0 4 4h10a4 4 0 0 1-4-4z"/><path fill="#D7B354" d="M30 73v-8H20v8a4 4 0 0 0 4 4h10a4 4 0 0 1-4-4zm46 1H24a4 4 0 0 1-4-4v3a4 4 0 0 0 4 4h52a4 4 0 0 0 4-4v-3a4 4 0 0 1-4 4z"/><path fill="#C1A14B" d="M30.142 74H24a4 4 0 0 1-4-4v3a4 4 0 0 0 4 4h10a3.99 3.99 0 0 1-3.858-3z"/><path fill="#E2574C" d="M29.5 48a4.5 4.5 0 1 1 0 9 4.5 4.5 0 0 1 0-9z"/><path fill="#CB4E44" d="M31.5 56a4.5 4.5 0 0 1-4.5-4.5c0-1.37.626-2.583 1.592-3.408A4.5 4.5 0 0 0 29.5 57a4.462 4.462 0 0 0 2.908-1.092A4.46 4.46 0 0 1 31.5 56z"/></svg><svg width="100" height="100" viewBox="0 0 100 100" id="luggage" x="157"><path class="cbackground" fill="#EFC75E" d="M50 0c27.614 0 50 22.386 50 50s-22.386 50-50 50S0 77.614 0 50 22.386 0 50 0z"/><path fill="#E2574C" d="M72 40H28c-5.522 0-10 4.478-10 10v38.413C26.671 95.645 37.826 100 50 100s23.328-4.355 32-11.587V50c0-5.522-4.478-10-10-10z"/><path fill="#CB4E44" d="M25 51v42.294c.98.567 1.979 1.108 3 1.61V51a4 4 0 0 1 4-4h-3a4 4 0 0 0-4 4z"/><path fill="#F19088" d="M71 46H29c-2.757 0-5 2.243-5 5v41.715c.656.4 1.324.784 2 1.154V51c0-1.654 1.346-3 3-3h42c1.654 0 3 1.346 3 3v42.869c.676-.37 1.344-.754 2-1.154V51c0-2.757-2.243-5-5-5z"/><path fill="#CB4E44" d="M18 50v38.413a50.115 50.115 0 0 0 3 2.305V50c0-5.522 4.478-10 10-10h-3c-5.522 0-10 4.478-10 10z"/><path fill="#F1ABA6" d="M34.5 55h31a1.5 1.5 0 0 1 0 3h-31a1.5 1.5 0 0 1 0-3z"/><path class="chandle" fill="#324D5B" d="M68.5 28H63v12h-3V28H40v12h-3V28h-5.5a2.5 2.5 0 1 1 0-5h37a2.5 2.5 0 1 1 0 5z"/><path class="cplane" fill="#F2F1EF" d="M58.664 69.334c-.771-.771-2.701-.088-3.625.836l-3.515 3.519c-.343-.318-8.883-3.363-9.189-3.058l-1.114 1.113a.785.785 0 0 0 0 1.112l6.242 4.896-2.46 2.461a7.406 7.406 0 0 0-.67.818l-.099-.098c-.156-.156-2.398-.439-2.555-.283l-.568.566a.4.4 0 0 0 0 .566l.28.279 1.501 1.499c-.298.742-.407 1.386-.12 1.674.288.288.933.178 1.676-.122l1.479 1.478.295.293a.4.4 0 0 0 .567 0l.568-.566c.156-.156-.127-2.394-.284-2.55l-.097-.097c.341-.247.627-.481.813-.667l2.46-2.462 4.898 6.222a.789.789 0 0 0 1.114 0l1.114-1.112c.308-.308-2.747-8.846-3.062-9.177l3.512-3.515c.926-.923 1.609-2.855.839-3.625z"/><path d="M37 28h3v3h-3zm23 0h3v3h-3z" fill="#233640"/><path fill="#2D4552" d="M70.949 26H29.05a2.5 2.5 0 0 0 2.45 2h37c1.21 0 2.218-.859 2.449-2z"/></svg><svg width="100" height="100" viewBox="0 0 100 100" id="tie" y="137"><path fill="#EDEDED" d="M50 0C22.387 0 0 22.386 0 50.001 0 77.614 22.387 100 50 100c27.614 0 50-22.386 50-49.999C100 22.386 77.614 0 50 0z"/><path fill="#D5D5D5" d="M44.898 2.999h10.116l9.985 70-15.021 13-14.978-13 9.898-70z"/><path fill="#DAD8D8" d="M50 0c6.169 0 12.967 1.457 18.422 3.5L50 18.009 31.641 3.484C37.096 1.441 43.831 0 50 0z"/><path fill="#E2574C" d="M44.898.999h10.116l9.985 70-15.021 13-14.978-13 9.898-70z"/><path fill="#CB4E44" d="M49.979 83.999L50 83.98V.999h-5.102l-9.898 70zm-5.479-25h11a1.5 1.5 0 0 1 0 3h-11a1.5 1.5 0 0 1 0-3z"/><path fill="#B6463D" d="M50 58.999h-5.5a1.5 1.5 0 0 0 0 3H50v-3z"/><path fill="#D15248" d="M43.249 12.667L50 18.009l6.689-5.269L55.015.999H44.898z"/><path fill="#BE4B41" d="M44.898.999l-1.649 11.668L50 18.009V.999z"/><path fill="#EC655B" d="M50 0a49.874 49.874 0 0 1 17.529 3.167L50 17.009 32.471 3.167A49.874 49.874 0 0 1 50 0z"/><path fill="#EFC75E" d="M44.5 57.999h11a1.5 1.5 0 0 1 0 3h-11a1.5 1.5 0 0 1 0-3z"/><path fill="#D5D5D5" d="M99.176 40.999H84v5h15.826a49.821 49.821 0 0 0-.65-5z"/><path fill="#fff" d="M97.721 35.039l-9.801 1.4A4.567 4.567 0 0 0 84 40.96v.039h15.176a49.728 49.728 0 0 0-1.455-5.96z"/></svg><svg width="157" height="37" viewBox="0 0 157 37" id="trendyminds"><title>logo</title><g transform="translate(0 1)" fill="none" fill-rule="evenodd"><path d="M119.332 13.875s3.202-1.596 2.963 1.151c0 0 1.495-3.188 4.47-1.829 1.217.557 2.065 1.956 2.465 4.3.697 4.09 2.474 4.392 3.427 2.736 0 0-2.04-1.302-1.692-3.962.645-4.938 7.544-3.94 8.855-.607 0 0-2.377-5.883.513-10.928 0 0 2.4-1.715 3.015-.106-.82 2.846-1.116 11.76-1.116 11.76s.38 3.44 1.706 3.136c2.45-.561 2.95-6.455 2.224-8.463-.331-.794 3.3-1.992 6.04 2.829 4.797 8.438-1.151 11.983-4.697 10.292-2.96-1.41-.84-6.594 4.552-5.442l.066.71c-1.546-.734-4.775-.251-4.832 2.356-.042 1.93 3.374 2.197 3.878-1.59.448-3.367-2.567-6.8-2.873-6.662-.306.14-1.299 6.726-4.57 6.8-1.575.035-2.53-1.709-2.53-1.709-.162.897-2.647 3.886-7.465 2.065-1.313 1.226-3.091 1.46-5.176.486-2.085-.973-2.416-3.258-2.787-4.892-.354-1.564-2.352-1.507-2.953-.631-.458.667-.23 4.764-.393 4.796 0 0-2.151.497-2.76-.164-.541-.59-.315-4.878-.33-6.432zm19.91 3.274c-1.346-2.976-4.883-2.835-5.25-.534-.367 2.3 2 4.133 4.136 2.85 1.39-.834 1.114-2.316 1.114-2.316zM46.994 4.618c-1.74 1.128-1.828-1.106-10.822-1.548-3.209-.156-6.61.164-10.11.67-.202 3.035-1.538 20.24-3.034 20.989-1.582.79-3.867-.85-3.867-.85s.971-7.043 3.23-19.556C17.214 5.2 11.905 6.26 6.775 6.607-3.098 7.269.09-.381 3.15.512c3.058.896.09 3.102 3.48 3.768 3.393.668 13.611-1.938 25.666-3.368C45.58-.664 49.19 3.197 46.994 4.618" fill="#333C46"/><path d="M85.673 10.36c-2.064.267-1.986 9.175-5.94 9.68-2.904.37-1.505-5.293-1.505-5.293s-.694-1.58-2.745-1.318c-2.295.292-.698 6.128-3.339 6.316-.705-.29-1.001-7.878 1.152-15.12 0 0-1.474-2.488-3.39-.72-2.378 2.193-.605 10.933-.605 10.933-4.96-5.718-10.844.95-7.97 4.755.538.71.738.881.738.881-.96 1.618-3.097 1.032-3.285-2.763-.119-2.377-.78-4.282-1.919-4.985-2.788-1.72-5.342 2.507-5.342 2.507.239-2.748-2.757-1.152-2.757-1.152s-1.473 5.889-4.545 6.563c-2.636.578-3.038-1.352-3.038-1.352s3.472-1.174 4.54-3.48c1.723-3.724-3.466-5.835-5.963-3.125-1.96 2.127-2.258 5.012-1.835 6.402 0 0-.32 1.464-1.498 1.662-1.18.197-2.678-.943-.445-6.128 2.233-5.183-1.949-4.28-3.6-2.754-1.649 1.527-2.005-1.77-3.693-.284-1.465 1.292-.074 4.696-1.026 8.03 0 0 .953 1.409 1.759.052.633-1.068.62-6.147.62-6.147.935.697 3.337-.153 3.419-.18-1.65 3.559-2.132 8.695 1.815 8.39 2.572-.198 3.036-1.481 3.036-1.481s1.401 1.937 4.494 1.777c2.093-.108 4.712-1.338 5.95-4.265.038.944.132 2.528.339 2.753.607.66 2.555.164 2.555.164.163-.033 0-4.09.392-4.798.896-1.611 3.291-1.79 3.451-.194.17 1.667.206 4.745 2.29 5.717 2.038.952 3.985.753 5.288-.403.497.185 1.152.337 1.98.365 3.57.116 4.55-2.127 4.55-2.127s.666 1.891 2.114 1.82c2.23-.11 2.923-3.152 2.923-3.152 0 1.887 1.414 3.575 4.86 3.468 2.34-.071 3.85-2.983 3.85-2.983-.581 2.473-1.538 15.748-.688 16.545.853.796 2.4.703 2.819-.148 0 0 .08-9.042.749-15.35.669-6.31 1.947-7.757 1.947-7.757s-.438-1.584-2.502-1.32zm-41.9 2.714c1.7.322.552 4.374-2.795 5.008-1.088-1.765 1.172-5.315 2.794-5.008zm20.096 5.192c-1.272-2.46 2.704-5.639 5.263-1.934l.016 1.287c-.417 1.889-4.013 3.09-5.28.647zM91.452 8.816c-.11 6.382-1.85 12.054-1.216 13.118.254.43 3.417.295 3.407-.127-.035-1.331.17-4.205.75-9.012 1.124.39 1.895 8.01 4.856 7.95 2.961-.059 6.382-7.785 7.28-9.925.909-.015-1.186 8.122 2.162 14.49 3.347 6.37 10.107 6.069 10.324 5.049.217-1.022-6.763.49-8.253-10.237-1.37-9.868 2.26-19.294 2.26-19.294s-2.907-1.572-4.625-.516c-1.719 1.056-3.253 12.963-8.482 18.01-.48.14-2.95-5.138-3.296-9.692-.137-1.799-5.167.186-5.167.186" fill="#333C46"/><path d="M114.2 13.547s2.66-.845 2.778 1.474c.068 1.326.062 4.848-.303 5.362-.258.362-2.008.355-2.364.219-.554-.212-.25-4.97-.112-7.055" fill="#333C46"/><path d="M115.888 1.316c.088-.042.098-.017.44-.017h3.974c.13 0 .192-.011.256.045.063.056.04.15.028.172a714.86 714.86 0 0 0-2.074 5.011c-.023.078.018.194.142.195.126.002.828 0 .891 0 .063 0 .222.07.118.247-.103.177-3.508 4.431-3.582 4.522-.075.09-.272.093-.272-.099 0-.19.3-4.42.3-4.513 0-.092-.063-.148-.173-.148l-1.447-.002c-.08 0-.19-.027-.176-.176.015-.136 1.257-4.402 1.502-5.143a.154.154 0 0 1 .073-.094" fill="#D18316"/><path d="M155.178 8.506c.833 0 1.48.652 1.48 1.463 0 .83-.647 1.473-1.489 1.473-.832 0-1.497-.643-1.497-1.473 0-.811.665-1.463 1.497-1.463h.01zm-.017.295c-.638 0-1.117.526-1.117 1.168 0 .652.479 1.17 1.134 1.17.638.008 1.107-.518 1.107-1.17 0-.642-.469-1.168-1.116-1.168h-.008zm-.222 1.927h-.337V9.273c.133-.026.32-.053.559-.053.274 0 .398.044.504.116.08.062.142.178.142.312 0 .17-.124.295-.301.348v.018c.142.045.221.16.266.357.044.223.07.312.106.357h-.363c-.045-.054-.071-.179-.115-.348-.027-.16-.116-.232-.302-.232h-.159v.58zm.009-.821h.16c.185 0 .336-.063.336-.214 0-.134-.097-.223-.31-.223a.795.795 0 0 0-.186.018v.419z" fill="#333C46"/></g></svg></svg>